<svg xmlns="http://www.w3.org/2000/svg" width="128" height="128" xmlns:v="https://vecta.io/nano"><style><![CDATA[.B{fill-rule:evenodd}.C{fill:#eb7331}.D{fill-opacity:.757}.E{stroke-linejoin:round}.F{stroke-dashoffset:4}]]></style><defs><linearGradient id="A" href="#r"><stop offset="0" stop-color="#fff"/><stop offset="1" stop-color="#fff" stop-opacity="0"/></linearGradient><linearGradient id="B" href="#r"><stop offset="0" stop-color="#fff" stop-opacity=".683"/><stop offset="1" stop-color="#fff" stop-opacity="0"/></linearGradient><linearGradient id="C" href="#r"><stop offset="0" stop-color="#fff" stop-opacity=".55"/><stop offset="1" stop-color="#fff" stop-opacity="0"/></linearGradient><linearGradient id="D" href="#r"><stop offset="0" stop-color="#fff" stop-opacity=".55"/><stop offset="1" stop-opacity="0"/></linearGradient><linearGradient id="E" href="#r"><stop offset="0" stop-color="#fff"/><stop offset="1" stop-color="#fff" stop-opacity="0"/></linearGradient><linearGradient id="F" href="#r"><stop offset="0" stop-color="#fff"/><stop offset="1" stop-color="#252525" stop-opacity="0"/></linearGradient><radialGradient id="G" gradientTransform="matrix(0.769753,1.181802,-7.650992,7.762471,62.39291,-29.03898)" cx="49.01" cy="8.495" fx="47.371" fy="6.77" r="3.975" href="#r"><stop offset="0" stop-color="#fff"/><stop offset="1" stop-color="#aeaeae"/></radialGradient><linearGradient href="#E" id="H" gradientTransform="matrix(0.981227,0.967355,-1.189872,1.227494,77.89405,-44.83244)" x1="48.499" y1=".812" x2="48.733" y2="2.366"/><radialGradient href="#C" id="I" gradientTransform="matrix(0.913761,0,0,0.207981,43.52233,-82.64466)" cx="49.012" cy="2.674" fx="49.012" fy="2.674" r="1.725"/><radialGradient href="#F" id="J" gradientTransform="matrix(3.15491,0,0,0.208011,-61.469,-82.65113)" cx="49.012" cy="2.674" fx="49.012" fy="2.674" r="1.725"/><radialGradient href="#D" id="K" gradientTransform="matrix(0.906625,0,0,0.207981,-140.6272,-82.64466)" cx="49.012" cy="2.674" fx="49.012" fy="2.674" r="1.725"/><radialGradient href="#B" id="L" gradientTransform="matrix(1.135556,3.256486e-3,-1.156204e-5,2.608447e-2,-4.700669,7.1547)" cx="34.678" cy="7.462" fx="11.255" fy="18.452" r="47.595"/><linearGradient href="#E" id="M" gradientTransform="matrix(1.37789,1.262983e-4,1.423919e-2,1.378513,65.76164,-93.88427)" x1="48.499" y1=".812" x2="48.733" y2="2.366"/><radialGradient href="#C" id="N" gradientTransform="matrix(0.913761,0,0,0.167717,85.52731,-90.69359)" cx="49.012" cy="2.674" fx="49.012" fy="2.674" r="1.725"/><radialGradient href="#F" id="O" gradientTransform="matrix(3.15491,0,0,0.167755,-19.14379,-90.70726)" cx="49.012" cy="2.674" fx="49.012" fy="2.674" r="1.725"/><radialGradient href="#D" id="P" gradientTransform="matrix(0.906625,0,0,0.167717,-182.6324,-90.69359)" cx="49.012" cy="2.674" fx="49.012" fy="2.674" r="1.725"/><radialGradient href="#B" id="Q" gradientTransform="matrix(1.135556,0.003256486,-0.00001156204,0.026084,-4.700669,7.1547)" cx="34.678" cy="7.462" fx="11.255" fy="18.452" r="47.595"/><linearGradient id="R" href="#r"><stop offset="0" stop-color="#ff5900" stop-opacity="1"/><stop offset="1" stop-color="#ff0" stop-opacity="1"/></linearGradient><linearGradient href="#R" id="S" x1="55.744" y1="46.374" x2="121.517" y2="11.319" spreadMethod="reflect" gradientTransform="matrix(0.99823,-6.168429e-2,2.721908e-2,0.849126,-0.856485,5.211242)"/><radialGradient id="T" cx="67.498" cy="36.571" fx="51.11" fy="38.921" r="59.667" gradientTransform="matrix(1.143352,-0.288983,0.145436,0.486936,-15.27227,35.65759)" href="#r"><stop offset="0" stop-opacity="0"/><stop offset=".879" stop-opacity="0"/><stop offset="1"/></radialGradient><radialGradient id="U" cx="10.503" cy="43.419" fx="10.503" fy="43.419" r="29.231" gradientTransform="matrix(1.182169,-7.305034e-2,1.90782e-2,0.595163,-2.406136,17.25332)" spreadMethod="reflect" href="#r"><stop offset="0" stop-color="#fff"/><stop offset="1" stop-color="#fff" stop-opacity="0"/></radialGradient><linearGradient id="V" x1="92.519" y1="5.879" x2="95.047" y2="19.529" gradientTransform="matrix(0.99823,-6.168429e-2,2.721908e-2,0.849126,-0.856485,5.211242)" href="#r"><stop offset="0" stop-color="#fff"/><stop offset="1" stop-color="#fff" stop-opacity="0"/></linearGradient><radialGradient href="#A" id="W" cx="123.623" cy="35.345" fx="125.264" fy="34.2" r="3.247" gradientTransform="matrix(1,0,0,1.461539,0,-16.31327)"/><linearGradient id="X" gradientTransform="matrix(-12.72707,0.492126,-5.364729e-2,3.971548,267.2454,-239.5888)" spreadMethod="pad" x1="18.705" y1="74.448" x2="13.317" y2="64.213" href="#r"><stop offset="0" stop-color="#fff" stop-opacity="1"/><stop offset="1" stop-color="#fff" stop-opacity="0"/></linearGradient><radialGradient href="#A" id="Y" gradientTransform="matrix(1,0,0,1.461539,0,-16.31327)" cx="123.623" cy="35.345" fx="125.264" fy="34.2" r="3.247"/><linearGradient href="#R" id="Z" spreadMethod="reflect" x1="55.744" y1="46.374" x2="121.517" y2="11.319" gradientTransform="matrix(0.99823,-6.168429e-2,2.721908e-2,0.849126,-0.856485,5.211242)"/><linearGradient id="a" x1="146.221" y1="40.586" x2="53.607" y2="21.16" href="#r"><stop offset="0" stop-color="#fff"/><stop offset="1" stop-color="#fff" stop-opacity="0"/></linearGradient><radialGradient id="b" cx="103.124" cy="24.957" fx="101.568" fy="22.073" r="12.242" gradientTransform="matrix(1.015732,0.401466,-0.180613,0.456961,2.193713,-31.47019)" href="#r"><stop offset="0"/><stop offset="1" stop-opacity="0"/></radialGradient><radialGradient id="c" cx="80.292" cy="39.654" fx="80.292" fy="39.654" r="9.041" gradientTransform="matrix(10.43391,-2.24727,0.122988,0.315112,-771.3108,206.7041)" href="#r"><stop offset="0" stop-color="#ff5f00"/><stop offset="1" stop-color="#ff5f00" stop-opacity="0"/></radialGradient><path id="d" d="M118.789 2.059c.532-.548 3.357-.624 5.876 1.859 2.544 2.508 2.64 5.193 1.974 5.88l-96.404 97.829-7.85-7.739 96.404-97.829"/><path id="e" d="M42.53 79.423c-1.375.908-12.341 12.126-13.148 13.384l6.298 6.181 13.148-13.384-6.298-6.181zm5.637 5.525L35.019 98.331l2.203 2.187c1.194-.761 12.216-11.918 13.148-13.384l-2.203-2.187z"/><path id="f" d="M123.847 3.383c1.663 1.357 2.705 3.311 2.75 3.503s-1.446-1.974-2.846-2.919c-1.389-.938-3.541-.823-3.681-.939s-1.046-1.206-.075-1.228c1.016-.022 2.568.535 3.853 1.582z"/><path id="g" d="M86.732-82.606h3.152v1.291h-3.152z"/><path id="h" d="M87.718-82.613H98.6v1.291H87.718z"/><path id="i" d="M-97.755-82.606h3.127v1.291h-3.127z"/><path id="j" d="M39.429 97.165c-.054.055-.086.109-.095.161a.15.15 0 0 0 .045.137c.039.039.084.054.135.045s.104-.041.159-.096.087-.109.095-.161-.006-.097-.045-.136-.084-.054-.135-.045-.105.041-.159.097m-.069-.069c.111-.113.216-.185.313-.214s.175-.015.235.045.075.139.045.237-.1.204-.211.317-.215.184-.313.214-.175.015-.235-.045-.075-.139-.046-.237.1-.204.211-.317m1.031-.668l.429-.055-.186.189-.288.038-.035.29-.187.19.052-.433-.412.053.187-.189.271-.035.033-.273.188-.19-.051.416m.07-.436l.195-.198.289-.028.027-.292.196-.199-.051.483.155.156-.179.181-.155-.156-.477.053m1.748-1.084c-.033.057-.071.112-.113.167s-.089.108-.14.159a.87.87 0 0 1-.326.227c-.102.034-.182.021-.241-.038s-.072-.142-.037-.246.112-.217.231-.338c.046-.047.093-.089.139-.127s.094-.072.14-.101l.076.077c-.05.027-.098.058-.142.091a1.09 1.09 0 0 0-.123.108.5.5 0 0 0-.133.199c-.017.06-.006.11.033.15s.088.051.146.034.122-.059.19-.129l.05-.054c.015-.018.027-.034.037-.05l-.072-.072-.109.111-.064-.064.279-.283.177.178m-.184-.503l.482-.489.072.072-.304.308.069.069.286-.29.072.072-.286.29.084.085.314-.318.072.072-.493.5-.369-.371m.65-.659l.2-.203.505-.001-.253-.254.169-.172.369.371-.2.203-.505.001.253.254-.169.172-.369-.371m1.126-1.142l.2-.203.505-.001-.253-.254.169-.172.369.371-.2.203-.505.001.253.254-.169.172-.369-.371m.969-.997a.52.52 0 0 1 .183-.131c.057-.021.101-.015.132.016s.037.076.017.132-.063.119-.129.186a.53.53 0 0 1-.184.132c-.056.02-.1.015-.131-.017s-.037-.076-.017-.133.063-.12.13-.187m.042.429l.382-.388.049.05-.382.388-.049-.05m0-.387c-.026.026-.041.052-.045.077s.004.046.023.066.041.027.065.023.05-.019.076-.046.04-.051.044-.076-.003-.047-.023-.066-.041-.027-.066-.023-.049.019-.075.045m1.175-.92c.053-.041.1-.066.14-.074s.073-.001.097.024c.037.037.038.091.004.164s-.101.16-.202.262l-.112.104-.119.094-.073-.074c.042-.025.082-.052.12-.08s.072-.06.104-.092a.5.5 0 0 0 .096-.123c.017-.035.017-.06.001-.076s-.042-.016-.077.001-.077.052-.127.103l-.072.073-.061-.062.075-.076c.045-.046.075-.083.089-.113s.014-.053-.001-.068-.036-.014-.065-.001-.063.041-.102.08a1.07 1.07 0 0 0-.082.094c-.026.033-.05.068-.072.104l-.07-.07.093-.118.098-.108c.09-.091.165-.152.226-.181s.107-.029.138.003c.022.022.029.05.021.086s-.03.077-.066.125"/><path id="k" d="M82.173 7.462c0 .63-21.264 1.141-47.495 1.141s-47.495-.511-47.495-1.141S8.447 6.321 34.678 6.321s47.495.511 47.495 1.141z"/><path id="l" d="M127.804-90.294c-.006-.564 1.953-2.068 5.49-2.067 3.572 0 5.526 1.362 5.533 2.068.005.459.01-.081.014.378l-11.023-.001c-.005-.46-.01.081-.014-.379"/><path id="m" d="M132.336-92.206c2.137-.162 4.251.37 4.418.455s-2.416-.315-4.076-.065c-1.648.248-3.099 1.532-3.281 1.545s-1.592-.101-.915-.662c.708-.587 2.205-1.146 3.855-1.272z"/><path id="n" d="M128.737-90.663h3.152v1.041h-3.152z"/><path id="o" d="M130.044-90.676h10.882v1.041h-10.882z"/><path id="p" d="M-139.76-90.663h3.127v1.041h-3.127z"/><path id="q" d="M 126.86934 35.345421 A 3.2466564 4.7451134 0 1 1  120.37603,35.345421 A 3.2466564 4.7451134 0 1 1  126.86934 35.345421 z"/><linearGradient id="r" gradientUnits="userSpaceOnUse"/></defs><path d="M99.582 12.405c-.304.554-.623 1.109-1.042 1.633l.251.038c10.169 1.202 15.717 7.049 16.969 11.607s-2.875 9.172-11.187 14.73-20.929 10.891-35.61 14.351-28.519 4.364-38.688 3.162-16.164-3.432-17.416-7.99.559-12.166 8.871-17.724 22.446-12.314 37.127-15.774c3.771-.046 2.764-1.981-.167-1.314-16.438 3.875-31.549 9.115-41.595 15.832S1.121 45.421 2.995 52.246 14.08 63.281 26.369 64.734s28.174 1.224 44.612-2.65 30.498-10.704 40.544-17.421 10.891-14.178 9.016-21.003c-1.844-6.714-8.853-11.016-20.959-11.254z" fill="url(#S)"/><path d="M50.893 3.281V.487v2.795z" fill="#fff" class="D"/><path d="M62.115 13.699c.167.616-1.582 1.108-1.877 1.707s.555 1.936-.089 2.288-1.658-.894-2.405-.922-2.014 1.132-2.579.734.557-1.661.39-2.277-1.799-1.236-1.505-1.835 2.003-.132 2.646-.485.902-1.896 1.649-1.867.681 1.579 1.245 1.977 2.357.065 2.524.681z" class="C"/><path d="M139.838 15.474v-2.795 2.795z" fill="#fff" class="D"/><path d="M104.995 96.243c-1.643-.088-1.642-4.08-2.92-5.116s-5.184-.214-5.608-1.803 3.373-2.823 3.964-4.358-1.399-4.996-.018-5.891 3.727 2.335 5.369 2.423 4.319-2.874 5.597-1.838-1.07 4.266-.645 5.855 4.068 3.22 3.477 4.755-4.388.301-5.768 1.196-1.805 4.864-3.448 4.776z" class="C"/><g fill="none" stroke="#000" class="E F"><path d="M88.524 7.699c-6.512.101-8.484 2.18-8.805 5.263-.362 3.475 5.405 5.52 9.365 4.274 9.434-2.969 23.186 1.739 26.096 9.565 1.654 4.449-2.274 8.648-10.586 14.206S83.668 51.982 68.987 55.443s-28.519 4.364-38.688 3.162-16.984-4.062-18.236-8.62c-.513-1.869-.967-4.223-.217-6.766l1.789-7.473c-2.827 2.645-6.862 5.494-8.022 7.858-1.541 2.924-2.874 5.861-2.118 8.612C5.369 59.04 14.08 63.281 26.369 64.734s28.174 1.224 44.612-2.65 31.253-10.967 41.299-17.684 13.326-13.247 11.451-20.072-8.493-11.44-20.82-14.388C96.379 8.378 91.19 7.657 88.524 7.699z" opacity=".369" stroke-width="2.765" stroke-opacity=".045"/><path d="M88.513 7.359c-6.512.101-8.784 2.198-9.105 5.281-.362 3.475 5.715 5.842 9.676 4.595 9.434-2.969 24.697 3.672 25.896 9.578.934 4.625-2.08 8.466-10.392 14.024S83.66 51.728 68.978 55.188s-28.519 4.364-38.688 3.162-16.677-3.826-17.929-8.384c-.513-1.869-.867-4.229-.117-6.773l-6.931.428c-1.541 2.924-2.874 5.861-2.118 8.612 1.875 6.825 10.885 11.047 23.174 12.5s28.174 1.224 44.612-2.65 31.253-10.967 41.299-17.684 13.525-13.259 11.651-20.084-8.704-11.768-21.03-14.715c-6.533-1.562-11.722-2.283-14.387-2.242z" opacity=".582" stroke-width="1.843" stroke-opacity=".065"/></g><g transform="matrix(-.30934 .988377 -.995679 -.087939 147.3254 4.002797)" opacity=".175"><use href="#d" class="B"/><use href="#e" fill="url(#G)"/><use href="#f" fill="url(#H)" class="B"/><use href="#g" transform="matrix(.712123 .702055 -.696017 .718025 0 0)" fill="url(#I)"/><use href="#h" transform="matrix(.712168 .702009 -.688266 .725459 0 0)" fill="url(#J)"/><use href="#i" transform="matrix(-.712123 -.702055 -.696017 .718025 0 0)" fill="url(#K)"/><use href="#j" fill="#999"/><use href="#k" transform="matrix(1.032406 -1.036404 -1.861463 -1.9626 52.02282 103.6246)" fill="url(#L)"/><g transform="matrix(.712202 .701974 .870513 -.883197 9.637176 -69.26202)"><g class="B"><use href="#l"/><use href="#m" fill="url(#M)"/></g><use href="#n" transform="matrix(1 .000092 .010329 .999947 0 0)" fill="url(#N)"/><use href="#o" transform="matrix(1 .00004 .023645 .99972 0 0)" fill="url(#O)"/><use href="#p" transform="matrix(-1 -.000092 .010329 .999947 0 0)" fill="url(#P)"/></g></g><g transform="matrix(-.445592 .918563 -.996007 -.228291 162.7705 13.6759)" opacity=".26"><use href="#d" class="B"/><use href="#e" fill="url(#G)"/><use href="#f" fill="url(#H)" class="B"/><use href="#g" transform="matrix(.712123 .702055 -.696017 .718025 0 0)" fill="url(#I)"/><use href="#h" transform="matrix(.712168 .702009 -.688266 .725459 0 0)" fill="url(#J)"/><use href="#i" transform="matrix(-.712123 -.702055 -.696017 .718025 0 0)" fill="url(#K)"/><use href="#j" fill="#999"/><use href="#k" transform="matrix(1.032406 -1.036404 -1.861463 -1.9626 52.02282 103.6246)" fill="url(#Q)"/><g transform="matrix(.712202 .701974 .870513 -.883197 9.637176 -69.26202)"><g class="B"><use href="#l"/><use href="#m" fill="url(#M)"/></g><use href="#n" transform="matrix(1 .000092 .010329 .999947 0 0)" fill="url(#N)"/><use href="#o" transform="matrix(1 .00004 .023645 .99972 0 0)" fill="url(#O)"/><use href="#p" transform="matrix(-1 -.000092 .010329 .999947 0 0)" fill="url(#P)"/></g></g><g transform="matrix(-.54205 .865155 -.96558 -.334369 174.8296 20.43456)"><use href="#d" class="B"/><use href="#e" fill="url(#G)"/><use href="#f" fill="url(#H)" class="B"/><use href="#g" transform="matrix(.712123 .702055 -.696017 .718025 0 0)" fill="url(#I)"/><use href="#h" transform="matrix(.712168 .702009 -.688266 .725459 0 0)" fill="url(#J)"/><use href="#i" transform="matrix(-.712123 -.702055 -.696017 .718025 0 0)" fill="url(#K)"/><use href="#j" fill="#999"/><use href="#k" transform="matrix(1.032406 -1.036404 -1.861463 -1.9626 52.02282 103.6246)" fill="url(#Q)"/><g transform="matrix(.712202 .701974 .870513 -.883197 9.637176 -69.26202)"><g class="B"><use href="#l"/><use href="#m" fill="url(#M)"/></g><use href="#n" transform="matrix(1 .000092 .010329 .999947 0 0)" fill="url(#N)"/><use href="#o" transform="matrix(1 .00004 .023645 .99972 0 0)" fill="url(#O)"/><use href="#p" transform="matrix(-1 -.000092 .010329 .999947 0 0)" fill="url(#P)"/></g></g><path d="M88.5 6.934c-6.512.101-9.072 2.557-9.393 5.639-.362 3.475 6.017 5.908 9.978 4.662 9.434-2.969 24.587 4.359 25.876 9.692 1.238 5.123-2.065 8.182-10.377 13.74s-20.929 10.891-35.61 14.351-28.519 4.364-38.688 3.162-16.472-3.669-17.724-8.226c-.513-1.869-.468-4.254.282-6.797l.478-7.542c-4.648 2.791-6.851 5.131-9.006 8.069-1.541 2.924-2.075 5.811-1.32 8.563C4.87 59.071 14.08 63.281 26.369 64.734s28.174 1.224 44.612-2.65 31.253-10.967 41.299-17.684 13.725-13.271 11.851-20.096-8.917-12.18-21.243-15.127C96.354 7.614 91.165 6.893 88.5 6.934z" opacity=".53" fill="none" stroke="#000" stroke-width=".922" stroke-opacity=".11" class="E F"/><path d="M23.88 27.053c-2.451 1.229-4.726 2.527-6.783 3.902-5.936 3.969-10.416 8.295-12.705 12.58-1.001 1.874 1.385 3.822 1.284 5.647 2 .632 1.197.857 3.464.717 1.231-.076 2.426-.289 3.575-.593-.931-4.605 1.072-11.783 9.017-17.095 1.028-.688 2.144-1.37 3.342-2.041-.273-1.091-.686-2.137-1.194-3.117z" fill="url(#Z)"/><path d="M88.494 6.765c-6.512.101-9.269 2.654-9.59 5.737-.362 3.475 6.219 5.981 10.18 4.734 9.434-2.969 23.912 3.766 25.696 9.59 1.386 4.525-1.894 8.029-10.206 13.587s-20.929 10.891-35.61 14.351-28.519 4.364-38.688 3.162-16.164-3.432-17.416-7.99c-.513-1.869-.468-4.254.282-6.797l-8.828.546c-1.541 2.924-2.075 5.811-1.32 8.563C4.87 59.071 14.08 63.281 26.369 64.734s28.174 1.224 44.612-2.65 31.253-10.967 41.299-17.684 13.725-13.271 11.851-20.096-8.922-12.35-21.249-15.297C96.349 7.444 91.16 6.723 88.494 6.765z" opacity=".93" fill="url(#Z)"/><path d="M56.324 21.193c-15.441 3.777-29.54 8.489-39.063 14.857-6.207 4.15-10.385 4.283-12.648 7.163-1.4 1.781-2.465 5.672-1.617 9.033 1.726 6.859 11.084 11.035 23.374 12.488s28.174 1.224 44.612-2.65 30.726-10.425 40.772-17.143 14.141-12.634 12.266-19.459c-1.261-4.592-5.174-6.226-11.056-7.124 1.975 1.572 3.109 3.39 3.173 5.387.023.708-.1 1.428-.338 2.121 1.095 4.499-3.022 9.062-11.224 14.546-8.312 5.558-20.929 10.891-35.61 14.351s-28.519 4.364-38.688 3.162-16.164-3.432-17.416-7.99.723-7.071 9.035-12.629c7.243-4.843 18.933-9.309 31.538-12.664.611-1.194 1.593-2.354 2.89-3.449z" opacity=".55" fill="url(#T)"/><path d="M34.591 25.531C24.87 29.45 12.397 35.607 12.485 46.73c.11 13.81 34.766 13.065 54.518 8.439C53.752 61 9.132 62.815 7.916 47.463c-.844-10.66 18.508-21.415 26.675-21.932z" opacity=".52" fill="url(#U)" class="B"/><g transform="matrix(-.227117 .993329 -1.019139 .00156 136.8169 2.97888)" opacity=".1"><use href="#d" class="B"/><use href="#e" fill="url(#G)"/><use href="#f" fill="url(#H)" class="B"/><use href="#g" transform="matrix(.712123 .702055 -.696017 .718025 0 0)" fill="url(#I)"/><use href="#h" transform="matrix(.712168 .702009 -.688266 .725459 0 0)" fill="url(#J)"/><use href="#i" transform="matrix(-.712123 -.702055 -.696017 .718025 0 0)" fill="url(#K)"/><use href="#j" fill="#999"/><use href="#k" transform="matrix(1.032406 -1.036404 -1.861463 -1.9626 52.02282 103.6246)" fill="url(#Q)"/><g transform="matrix(.712202 .701974 .870513 -.883197 9.637176 -69.26202)"><g class="B"><use href="#l"/><use href="#m" fill="url(#M)"/></g><use href="#n" transform="matrix(1 .000092 .010329 .999947 0 0)" fill="url(#N)"/><use href="#o" transform="matrix(1 .00004 .023645 .99972 0 0)" fill="url(#O)"/><use href="#p" transform="matrix(-1 -.000092 .010329 .999947 0 0)" fill="url(#P)"/></g></g><g class="B"><path d="M86.477 6.832c-2.152.065-5.736 1.412-6.367 3.121-.642 1.739 3.19 3.167 5.145 2.905 3.76-.504 4.414-1.273 5.283-2.717 1.211-2.011 18.53 1.405 18.53 1.405S97.397 6.5 86.477 6.832z" fill="url(#V)"/><path d="M12.575 34.883C2.563 44.205-1.431 53.326 16.383 59.562c27.324 8.243 67.232 1.78 92.2-14.135C84.047 63.466 40.909 70.16 14.181 61.459c-19.03-6.661-13.03-16.874-1.606-26.576z" opacity=".51" fill="url(#X)"/></g><use href="#q" transform="matrix(.644409 -.03982 .028722 .896008 40.68178 -.067627)" fill="url(#W)"/><use href="#q" transform="matrix(-.644409 .03982 .028722 .896008 85.14319 10.40679)" fill="url(#Y)"/><path d="M44.693 42.481c-.95 1.033-3.749-.798-5.167-.438s-2.954 3.289-4.298 2.837-.154-3.497-.911-4.587-4.26-1.377-4.14-2.689 3.653-1.364 4.604-2.397.322-4.14 1.74-4.499 2.412 2.655 3.756 3.106 4.458-1.181 5.215-.091-2.163 3.004-2.282 4.316 2.434 3.409 1.483 4.442zM23.112 20.083c-.525.476-1.816-.559-2.537-.441s-1.638 1.517-2.28 1.234.108-1.755-.209-2.332-2.038-.871-1.91-1.522 1.883-.525 2.408-1.001.378-2.056 1.1-2.174 1.055 1.43 1.698 1.714 2.272-.399 2.589.178-1.23 1.409-1.359 2.06 1.026 1.809.501 2.284zm4.222 47.339c-1.013-1.037 1.759-3.499 1.643-4.903s-3.24-3.234-2.414-4.468 4.164.277 5.617-.316 2.554-3.919 4.078-3.645.815 3.671 1.828 4.708 4.819.812 4.935 2.216-3.661 1.991-4.487 3.226.424 4.421-1.028 5.014-3.077-2.44-4.601-2.714-4.557 1.92-5.57.883z" class="C"/><path d="M63.574 55.949c35.767.723 77.505-32.601 46.444-44.149 28.566 14.615-17.015 45.25-46.444 44.149z" fill="url(#a)" class="B"/><path d="M97.531 13.375c-3.657-.008-6.058 1.271-6.281 3.375 9.137-1.444 21.338 4.412 23.406 9.719 1.031-.88 1.366-2.134.813-3.656-1.387-3.819-7.882-7.892-14.5-9.094-1.241-.225-2.385-.341-3.437-.344z" opacity=".549" fill="url(#b)"/><path d="M64.197 37.353c4.515-.336 8.412-1.382 12.274-2.468l1.787 4.745c-3.66 1.594-7.842 2.255-12.274 2.468l-1.787-4.745z" opacity=".336" fill="url(#c)"/></svg>