<svg xmlns="http://www.w3.org/2000/svg" width="128" height="128" xmlns:v="https://vecta.io/nano"><style><![CDATA[.B{clip-path:none}.C{filter:url(#O)}.D{stroke-linejoin:round}.E{stroke-dashoffset:1.08779998}.F{fill-rule:evenodd}]]></style><defs><linearGradient id="A" x1="-85.428" y1="-2.504" x2="-52.334" y2="107.019" href="#S"><stop offset="0" stop-color="#bbb"/><stop offset="1" stop-color="#888"/></linearGradient><linearGradient y2="85.106" x2="62.098" y1="57.513" x1="61.623" id="B" href="#S"><stop offset="0" stop-color="#fff"/><stop offset="1" stop-color="#fff" stop-opacity="0"/></linearGradient><linearGradient y2="-98.964" x2="-48.988" y1="-75.036" x1="-37.024" id="C" href="#M"/><linearGradient y2="-75.035" x2="-51.995" y1="-118.903" x1="-56.964" id="D" href="#M"/><linearGradient y2="-63.062" x2="-51.985" y1="-110.39" x1="-51.985" id="E" href="#S"><stop offset="0" stop-color="#cbff9c"/><stop offset="1" stop-color="#65c171" stop-opacity="0"/></linearGradient><radialGradient r="20" fy="96" fx="-40" cy="84" cx="-44" gradientTransform="matrix(0.9969724,0,0,0.9969724,-1.1332086,-170.74569)" id="F" href="#N"/><linearGradient y2="19.282" x2="80" y1="15.337" x1="73.743" spreadMethod="reflect" id="G" href="#M"/><radialGradient r="24" fy="100" fx="-60" cy="84" cx="-44" gradientTransform="matrix(0.996972,0,0,0.996972,-1.1332086,-170.74569)" id="H" href="#S"><stop offset="0" stop-opacity=".779"/><stop offset="1" stop-opacity="0"/></radialGradient><linearGradient y2="17.803" x2="79.289" y1="17.803" x1="66.876" id="I" href="#S"><stop offset="0" stop-color="#fff"/><stop offset="1" stop-color="#252525" stop-opacity="0"/></linearGradient><linearGradient y2="19.282" x2="80" y1="15.337" x1="73.743" spreadMethod="reflect" id="J" href="#S"><stop offset="0" stop-color="#fff14d"/><stop offset="1" stop-color="#f8ffa0" stop-opacity="0"/></linearGradient><linearGradient y2="104.807" x2="-62.425" y1="76.708" x1="-13.757" gradientTransform="matrix(0.9969724,0,0,0.9969724,-1.1332086,-170.74569)" id="K" href="#N"/><filter id="L" x="-.028" y="-.028" width="1.056" height="1.056"><feGaussianBlur stdDeviation=".203"/></filter><linearGradient id="M" href="#S"><stop offset="0" stop-color="#fff"/><stop offset="1" stop-color="#fff" stop-opacity="0"/></linearGradient><radialGradient id="N" cx="48" cy="-.215" r="55.148" href="#S"><stop offset="0" stop-color="#72d13d"/><stop offset=".355" stop-color="#35ac1c"/><stop offset=".619" stop-color="#0f9508"/><stop offset=".757" stop-color="#008c00"/><stop offset="1" stop-color="#007a00"/></radialGradient><filter x="-.086" width="1.173" y="-.095" height="1.189" id="O"><feGaussianBlur stdDeviation=".447"/></filter><linearGradient id="P" x1="-36.027" y1="-22.624" x2="-36.027" y2="92" href="#S"><stop offset="0" stop-color="#dcebff"/><stop offset="1" stop-color="#fff"/></linearGradient><path id="Q" d="M-46.932-110.927c-3.307 0-6.044 2.737-6.044 6.044v9.907h-9.907c-3.307 0-6.044 1.25-6.044 4.558 0-.943 0 3.381 0 5.35 0 3.307 2.737 6.044 6.044 6.044h9.907v9.907c0 3.307 2.737 6.044 6.044 6.044h3.863c3.307 0 6.044-2.737 6.044-6.044v-9.907h9.907c3.307 0 6.044-2.737 6.044-6.044v-3.863c0-3.307-2.737-6.044-6.044-6.044h-9.907v-9.907c0-3.307-2.737-6.044-6.044-6.044h-3.863z"/><path id="R" d="M69.876 12.058c-1.077.065-2.528.219-3 .938l1.59 11.138L79 23.374v-.469c1.741-2.57-4.78-10.907-9.124-10.847z"/><linearGradient id="S" gradientUnits="userSpaceOnUse"/></defs><path d="M112 88h12v12h-12z" fill="#2c72c7"/><path d="M120 96h-4v-4h4z" fill="#bfd9ff"/><path transform="scale(-1 1)" d="M -114 10 L -10 10 L -10 90 L -114 90 Z" fill="url(#P)" stroke="url(#A)" stroke-width="4"/><path d="M56 0h12v12H56zm0 88h12v12H56zM0 0h12v12H0zm0 88h12v12H0zM112 0h12v12h-12zm0 88h8v8h-8zM0 44h12v12H0zm112 0h12v12h-12z" fill="#2c72c7"/><path d="M130.807 66.062v-1.397 1.397z" fill="#fff" fill-opacity=".757"/><g transform="translate(141.073 183.073)"><use href="#Q" fill="none" stroke="#fff" stroke-width="8" class="B D E"/><path d="M-46.932-110.927c-3.307 0-6.044 2.737-6.044 6.044v9.907h-9.907c-3.307 0-6.044 2.737-6.044 6.044v3.863c0 3.307 2.737 6.044 6.044 6.044h9.907v9.907c0 3.307 2.737 6.044 6.044 6.044h3.863c3.307 0 6.044-2.737 6.044-6.044v-9.907h9.907c3.307 0 6.044-2.737 6.044-6.044v-3.863c0-3.307-2.737-6.044-6.044-6.044h-9.907v-9.907c0-3.307-2.737-6.044-6.044-6.044h-3.863z" fill="url(#K)" class="B"/><g class="F"><use href="#R" transform="matrix(-.498486 0 0 .498486 -13.096875 -116.5511)" fill="url(#G)" class="B C"/><path d="M69.876 12.058c-1.077.065-2.528.219-3 .938l1.297 8.794L79 23.374v-.469c1.741-2.57-4.78-10.907-9.124-10.847z" transform="matrix(.498486 0 0 .498486 -76.548569 -116.5511)" fill="url(#G)" class="B C"/><path d="M69.876 12.058c-1.077.065-2.528.219-3 .938l2.176 10.747L79 23.374v-.469c1.741-2.57-4.78-10.907-9.124-10.847z" transform="matrix(-.498486 0 0 -.498486 -13.096875 -57.06213)" opacity=".682" fill="url(#J)" class="C"/><path transform="matrix(.498486 0 0 -.498486 -76.548565 -57.06213)" d="M69.876 12.058c-1.077.065-2.528.219-3 .938l.906 10.552L79 23.374v-.469c1.741-2.57-4.78-10.907-9.124-10.847z" opacity=".708" fill="url(#I)" class="C"/><use href="#R" transform="matrix(.498486 0 0 .498486 -60.59701 -100.98632)" opacity=".551" fill="url(#G)" class="B C"/></g><use href="#Q" opacity=".581" fill="url(#H)" class="B"/><use href="#R" transform="matrix(-.498486 0 0 .498486 -29.402996 -100.98632)" opacity=".551" fill="url(#G)" class="B C F"/><path d="M-46.932-106.939c-1.131 0-2.056.926-2.056 2.056v13.895h-13.895c-1.131 0-2.056.926-2.056 2.056v3.863c0 1.131.926 2.056 2.056 2.056h13.895v13.895c0 1.131.926 2.056 2.056 2.056h3.863c1.131 0 2.056-.926 2.056-2.056v-13.895h13.895c1.131 0 2.056-.926 2.056-2.056v-3.863c0-1.131-.926-2.056-2.056-2.056h-13.895v-13.895c0-1.131-.926-2.056-2.056-2.056h-3.863z" fill="url(#F)" class="B"/><path d="M-46.932-106.939c-1.131 0-2.056.926-2.056 2.056v13.895h-13.895c-1.131 0-2.056.926-2.056 2.056v3.863c0 .109.046.207.062.312a71.66 71.66 0 0 0 10.219.748c11.467 0 21.74-2.622 28.507-6.73-.288-.155-.617-.249-.966-.249h-13.895v-13.895c0-1.131-.926-2.056-2.056-2.056h-3.863z" fill="url(#E)" class="B"/><path d="M-46.932-106.939c-1.131 0-2.056.926-2.056 2.056v.997c0-1.131 1.325-2.654 2.455-2.654h3.863a2.09 2.09 0 0 1 .81.156c.11.249.486 1.121.486 1.408l.361 13.989.031-13.895a2.04 2.04 0 0 0-.623-1.464c-.088-.088-.178-.178-.28-.249-.008-.005-.023.005-.031 0-.102-.069-.198-.137-.312-.187-.009-.004-.022.004-.031 0-.114-.049-.25-.097-.374-.125-.01-.002-.021.002-.031 0a1.97 1.97 0 0 0-.374-.031h-.031-.467-3.396zm-15.952 15.952c-1.131 0-2.056.926-2.056 2.056v.997c0-1.131.926-2.654 2.056-2.654l13.895-.399h-13.895zm21.871 0l13.718.51c-6.739 3.616-17.769 6.375-28.423 6.375-1.774 0-3.529-.09-5.234-.218 2.054.186 4.167.312 6.325.312 10.737 0 20.422-2.317 27.168-5.982.008-.004.023.004.031 0 .441-.241.862-.496 1.277-.748-.136-.073-.284-.144-.436-.187-.01-.003-.021.003-.031 0a1.92 1.92 0 0 0-.467-.062h-.031-.467-13.428z" fill="url(#D)" class="B"/><path d="M-46.932-106.939c-1.131 0-2.056.926-2.056 2.056v.997c0-1.131 1.325-2.654 2.455-2.654h3.863a2.09 2.09 0 0 1 .81.156c.11.249.486 1.121.486 1.408l.361 13.989.031-13.895a2.04 2.04 0 0 0-.623-1.464c-.088-.088-.178-.178-.28-.249-.008-.005-.023.005-.031 0-.102-.069-.198-.137-.312-.187-.009-.004-.022.004-.031 0-.114-.049-.25-.097-.374-.125-.01-.002-.021.002-.031 0a1.97 1.97 0 0 0-.374-.031h-.031-.467-3.396zm-15.952 15.952c-1.131 0-2.056.926-2.056 2.056v.997c0-1.131.926-2.654 2.056-2.654l13.895-.399h-13.895zm21.871 0l13.815.51c-6.739 3.616-17.866 6.375-28.521 6.375-1.774 0-3.529-.09-5.234-.218 2.054.186 4.167.312 6.325.312 10.737 0 20.422-2.317 27.168-5.982.008-.004.023.004.031 0 .441-.241.862-.496 1.277-.748-.136-.073-.284-.144-.436-.187-.01-.003-.021.003-.031 0a1.92 1.92 0 0 0-.467-.062h-.031-.467-13.428z" fill="url(#C)" class="B"/><path d="M 62.0625,43.999992 C 60.92853,43.999992 59.999996,44.928523 59.999996,46.062492 L 59.999996,59.999992 L 46.062496,59.999992 C 44.928527,59.999992 43.999996,60.92852 43.999996,62.06249 L 43.999996,65.93749 C 43.999996,67.07146 44.928527,67.99999 46.062496,67.99999 L 59.999996,67.99999 L 59.999996,81.9375 C 59.999996,83.07147 60.92853,84 62.0625,84 L 65.9375,84 C 67.07147,84 68,83.07147 68,81.9375 L 68,67.99999 L 81.9375,67.99999 C 83.07147,67.99999 84,67.07146 84,65.93749 L 84,62.06249 C 84,60.92852 83.07147,59.999992 81.9375,59.999992 L 68,59.999992 L 68,46.062492 C 68,44.928523 67.07147,43.999992 65.9375,43.999992 L 62.0625,43.999992 z " transform="matrix(.996972 0 0 .996972 -108.80623 -150.80623)" fill="none" stroke="url(#B)" stroke-width="1.254" filter="url(#L)" class="B D E"/></g><path d="M54 72v-4h6l-.081-36H48v6h-4V28h36v10h-4v-6H64v36h6v4"/><path d="M116 48h4v4h-4zm0-44h4v4h-4zM60 4h4v4h-4zM4 4h4v4H4zm4 48H4v-4h4zm0 44H4v-4h4zm56 0h-4v-4h4z" fill="#bfd9ff"/></svg>