<svg xmlns="http://www.w3.org/2000/svg" width="891.6" height="836.9" overflow="visible" fill="#5fb4b1" xmlns:v="https://vecta.io/nano"><path d="M495.7 420.6l111.7-216.9H503.8l-72.1 139.9-116.4-139.9H211.7L392 420.6 282.5 633.1h103.6l69.8-135.5 112.7 135.5h103.6L495.7 420.6zM153 625.6l.3 2.3.7 2.6c3.8 15.1 8.9 59.5-12 86.3-6.2 8-14.8 14.5-25.6 19.3L53.9 836.9c36.9 0 69.4-5.8 96.5-17.4 25.9-11 47.2-27.2 63.2-48.1 22.2-28.9 33.9-66.6 33.8-109.1 0-24.8-4-44.6-5.7-52L200.8 337h.1v-90.2H0V337h109.8L153 625.6zm585.5-414.4l-.3-2.3-.7-2.6c-3.8-15.1-8.9-59.5 12-86.3 6.2-8 14.8-14.5 25.6-19.3L837.6 0c-36.9 0-69.4 5.8-96.5 17.4-25.9 11-47.2 27.2-63.2 48.1-22.2 28.9-33.9 66.6-33.8 109.1 0 24.8 4 44.6 5.7 52l40.9 273.3h-.1v90.2h200.9v-90.2H781.7l-43.2-288.7z"/><path d="m153 625.6.3 2.3.7 2.6c3.8 15.1 8.9 59.5-12 86.3-6.2 8-14.8 14.5-25.6 19.3L53.9 836.9c36.9 0 69.4-5.8 96.5-17.4 25.9-11 47.2-27.2 63.2-48.1 22.2-28.9 33.9-66.6 33.8-109.1 0-24.8-4-44.6-5.7-52L200.8 337h.1v-90.2H0V337h109.8L153 625.6z"/></svg>