<svg xmlns="http://www.w3.org/2000/svg" width="128" height="128" viewBox="0 0 116 116" overflow="visible" xmlns:v="https://vecta.io/nano"><style><![CDATA[.B{fill-rule:evenodd}.C{fill:none}.D{mask:none}.E{stroke-linejoin:round}.F{stroke:#000}.G{stroke-dashoffset:1.08779998}.H{stroke-linecap:round}.I{filter:url(#q)}.J{opacity:.431}.K{fill:#2b2014}.L{stroke-miterlimit:4}.M{stroke-dasharray:none}.N{clip-path:url(#f)}.O{fill-opacity:.448}.P{stroke-opacity:.456}.Q{stroke-opacity:.497}]]></style><defs><linearGradient id="A" href="#AY"><stop offset="0" stop-color="#594928"/><stop offset="1" stop-color="#896649" stop-opacity="0"/></linearGradient><filter id="B" x="-.036" y="-.036" width="1.071" height="1.071"><feGaussianBlur stdDeviation="1.37"/></filter><radialGradient spreadMethod="reflect" r="34.675" fy="88.832" fx="44.134" cy="88.832" cx="44.134" id="C" href="#AY"><stop offset="0" stop-color="#6eae29"/><stop offset=".26" stop-color="#d5efb9" stop-opacity="0"/><stop offset="1" stop-color="#6eae29" stop-opacity="0"/></radialGradient><filter id="D" x="-.022" y="-.022" width="1.044" height="1.044"><feGaussianBlur stdDeviation=".607"/></filter><filter id="E" x="-.027" y="-.027" width="1.055" height="1.055"><feGaussianBlur stdDeviation=".416"/></filter><radialGradient gradientTransform="matrix(1.079025,0,0,1.079025,-5.0815811,-5.0975613)" r="18.199" fy="52.495" fx="64.017" cy="64.506" cx="64.303" id="F" href="#AY"><stop offset="0" stop-color="#6f9500" stop-opacity="0"/><stop offset=".861" stop-color="#4c5e19" stop-opacity=".314"/><stop offset="1" stop-color="#374b00"/></radialGradient><filter id="G" x="-.044" y="-.044" width="1.088" height="1.088"><feGaussianBlur stdDeviation=".46"/></filter><linearGradient y2="50.564" x2="83.224" y1="71.889" x1="83.224" id="H" href="#AY"><stop offset="0" stop-color="#bce93f" stop-opacity=".286"/><stop offset="1" stop-color="#eefacd"/></linearGradient><filter id="I" x="-.044" y="-.044" width="1.088" height="1.088"><feGaussianBlur stdDeviation=".691"/></filter><radialGradient gradientTransform="matrix(0.92357382,0,0,0.92357382,4.9144563,4.929911)" r="18.199" fy="78.426" fx="64.935" cy="64.506" cx="64.303" id="J" x1="343.999" y1="56" x2="343.999" y2="128" href="#AY"><stop offset="0" stop-color="#6ccb34"/><stop offset="1" stop-color="#afe41f"/></radialGradient><filter id="K" x="-.01" y="-.01" width="1.02" height="1.02"><feGaussianBlur stdDeviation=".114"/></filter><linearGradient y2="270.17" x2="310.85" y1="-27.656" x1="310.85" id="L" href="#AY"><stop offset="0"/><stop offset=".5" stop-color="#fff"/></linearGradient><linearGradient y2="12.678" x2="64" y1="81.5" x1="64" spreadMethod="reflect" id="M" href="#AY"><stop offset="0" stop-color="#b4b4b4"/><stop offset=".5" stop-color="#d1d1d1"/><stop offset="1" stop-color="#fafafa"/></linearGradient><radialGradient r="60" fy="64" fx="-84" cy="64" cx="-84" gradientTransform="translate(148,0)" id="N" href="#j"/><linearGradient y2="167.967" x2="52.469" y1="-13.033" x1="53.469" id="O" href="#AY"><stop offset="0" stop-color="#767676"/><stop offset="1" stop-color="#767676" stop-opacity="0"/></linearGradient><filter id="P" x="-.027" y="-.013" width="1.054" height="1.027"><feGaussianBlur stdDeviation=".07"/></filter><linearGradient y2="61.877" x2="114.296" y1="49.937" x1="114.296" id="Q" href="#m"/><filter id="R" x="-.034" y="-.037" width="1.069" height="1.074"><feGaussianBlur stdDeviation=".204"/></filter><linearGradient y2="61.877" x2="114.296" y1="49.937" x1="114.296" id="S" href="#m"/><radialGradient r="1.289" fy="6.85" fx="54.673" cy="6.85" cx="54.673" gradientTransform="matrix(1,0,0,1.901961,0,-6.1783597)" id="T" href="#AY"><stop offset="0" stop-color="#474747"/><stop offset="1" stop-color="#474747" stop-opacity="0"/></radialGradient><filter id="U" height="1.13" y="-.065" width="1.247" x="-.124"><feGaussianBlur stdDeviation=".133"/></filter><radialGradient r="1.289" fy="6.341" fx="54.046" cy="6.85" cx="54.673" gradientTransform="matrix(1,0,0,1.901961,0,-6.1783597)" id="V" href="#k"/><linearGradient y2="22.658" x2="38.628" y1="17.797" x1="52.722" id="W" href="#l"/><filter id="X" x="-.006" y="-.018" width="1.012" height="1.035"><feGaussianBlur stdDeviation=".093"/></filter><linearGradient y2="21.729" x2="18.252" y1="11.362" x1="43.714" id="Y" href="#l"/><filter id="Z" x="-.003" y="-.007" width="1.005" height="1.014"><feGaussianBlur stdDeviation=".023"/></filter><radialGradient gradientTransform="matrix(1,0,0,1.9019608,0,-6.1783597)" r="1.289" fy="6.341" fx="54.046" cy="6.85" cx="54.673" id="a" href="#k"/><linearGradient y2="9.394" x2="62.991" y1="3.391" x1="62.907" id="b" href="#AY"><stop offset="0" stop-color="#fff"/><stop offset="1" stop-color="#fff" stop-opacity="0"/></linearGradient><radialGradient r="43.734" fy="67.895" fx="94.819" cy="67.895" cx="94.819" gradientTransform="matrix(1,0,0,0.5780636,0,-101.84696)" id="c" href="#AY"><stop offset="0" stop-color="#fff"/><stop offset="1" stop-color="#fff" stop-opacity="0"/></radialGradient><radialGradient r="60" fy="61.404" fx="-1.249" cy="23.725" cx="-1.249" gradientTransform="matrix(1.3581356,1.5026073,-1.6333333,1.4762927,-61.051702,-44.648234)" id="d" href="#AY"><stop offset="0" stop-opacity="0"/><stop offset=".611" stop-opacity="0"/><stop offset=".685" stop-opacity=".378"/><stop offset=".75" stop-opacity="0"/></radialGradient><filter id="e" x="-.016" y="-.016" width="1.033" height="1.033"><feGaussianBlur stdDeviation=".605"/></filter><clipPath id="f"><path clip-path="none" d="M76.906-70.062C73.994-66.09 69.299-63.5 64-63.5a15.96 15.96 0 0 1-12.219-5.656c-23.14-4.286-26.618 14.04-31.5 30.75l1.281 1.344c2.327 2.303 3.946 3.678 6.563 5.656.789.572 1.783.685 2.469 0l7.094-6.25a2.1 2.1 0 0 1 2.375-.25l.094-.094c3.528 2.017 7.328 3.61 11.344 4.688v.156c.736.209 1.44.859 1.531 1.844l.594 9.438c0 .969.788 1.597 1.75 1.75 3.249.451 5.351.608 8.625.625 3.274-.017 5.376-.174 8.625-.625.962-.153 1.75-.781 1.75-1.75l.594-9.437c.091-.984.795-1.635 1.531-1.844v-.156c4.016-1.078 7.816-2.67 11.344-4.687l.094.094a2.1 2.1 0 0 1 2.375.25l7.094 6.25c.686.686 1.68.572 2.469 0 2.617-1.979 4.235-3.354 6.563-5.656.485-.491.895-.931 1.313-1.375 3.924-7.087-25.609-43.435-30.844-31.625z" fill="url(#c)" fill-opacity="1" stroke="none" stroke-width="3" stroke-opacity="1" class="D E G H J L M"/></clipPath><filter id="g" x="-.035" y="-.061" width="1.07" height="1.122"><feGaussianBlur stdDeviation="1.283"/></filter><mask id="h" maskUnits="userSpaceOnUse"><path d="M-84 4c-3.274.017-5.376.174-8.625.625-.962.153-1.75.781-1.75 1.75l-.594 9.438c-.089.955-.757 1.584-1.469 1.813-.022.007-.041.025-.062.031-4.117 1.105-8.023 2.722-11.625 4.813a2.08 2.08 0 0 1-2.187-.312l-7.094-6.25c-.686-.685-1.68-.572-2.469 0-2.617 1.979-4.235 3.354-6.562 5.656-2.303 2.327-3.678 3.946-5.656 6.563-.572.789-.685 1.783 0 2.469l6.25 7.094c.474.57.736 1.309.469 1.844l-.062.125c-2.246 3.8-3.995 7.936-5.125 12.313-.012.021-.019.042-.031.063-.317.513-.855.932-1.594 1l-9.437.594c-.969 0-1.597.788-1.75 1.75-.451 3.249-.608 5.351-.625 8.625.017 3.274.174 5.376.625 8.625.153.962.781 1.75 1.75 1.75l9.438.594c.867.08 1.443.647 1.719 1.281 1.103 4.143 2.766 8.064 4.875 11.688a2.1 2.1 0 0 1-.25 2.375l-6.25 7.094c-.685.685-.572 1.68 0 2.469 1.979 2.617 3.354 4.235 5.656 6.563 2.327 2.303 3.946 3.678 6.563 5.656.789.572 1.783.686 2.469 0l7.094-6.25a2.1 2.1 0 0 1 2.375-.25l.094-.094c3.528 2.017 7.328 3.61 11.344 4.688v.156c.736.209 1.44.859 1.531 1.844l.594 9.438c0 .969.788 1.597 1.75 1.75 3.249.451 5.351.608 8.625.625 3.274-.017 5.376-.174 8.625-.625.962-.153 1.75-.781 1.75-1.75l.594-9.437c.091-.984.795-1.635 1.531-1.844v-.156c4.016-1.078 7.816-2.67 11.344-4.687l.094.094a2.1 2.1 0 0 1 2.375.25l7.094 6.25c.686.686 1.68.572 2.469 0 2.617-1.979 4.235-3.354 6.563-5.656 2.303-2.327 3.678-3.946 5.656-6.562.572-.789.686-1.783 0-2.469l-6.25-7.094a2.1 2.1 0 0 1-.25-2.375c2.109-3.623 3.772-7.544 4.875-11.687.275-.635.851-1.201 1.719-1.281l9.438-.594c.969 0 1.597-.788 1.75-1.75.451-3.249.608-5.351.625-8.625-.017-3.274-.174-5.376-.625-8.625-.153-.962-.781-1.75-1.75-1.75l-9.438-.594c-.738-.068-1.277-.487-1.594-1-.006-.022-.026-.041-.031-.062-1.13-4.376-3.151-8.365-5.125-12.312l-.062-.125c-.267-.535-.005-1.273.469-1.844l6.25-7.094c.686-.686.572-1.68 0-2.469-1.979-2.617-3.354-4.235-5.656-6.562-2.327-2.303-3.946-3.678-6.562-5.656-.789-.572-1.783-.686-2.469 0l-7.094 6.25a2.08 2.08 0 0 1-2.187.313c-3.602-2.09-7.508-3.707-11.625-4.812-.022-.006-.041-.024-.062-.031-.712-.228-1.38-.857-1.469-1.812l-.594-9.437c0-.969-.788-1.597-1.75-1.75C-78.624 4.174-80.726 4.017-84 4zm0 44a16.01 16.01 0 0 1 16 16 16.01 16.01 0 0 1-16 16 16.01 16.01 0 0 1-16-16 16.01 16.01 0 0 1 16-16z" opacity="1" fill="url(#i)" fill-opacity="1" stroke="none" stroke-width="3" stroke-opacity="1" class="E G H L M"/></mask><radialGradient r="60" fy="64" fx="-84" cy="64" cx="-84" id="i" href="#j"/><linearGradient id="j" href="#AY"><stop offset="0" stop-color="#fff"/><stop offset="1" stop-color="#fff" stop-opacity="0"/></linearGradient><linearGradient id="k" href="#AY"><stop offset="0" stop-color="#fff"/><stop offset=".5" stop-color="#fff" stop-opacity=".791"/><stop offset="1" stop-color="#fff" stop-opacity="0"/></linearGradient><linearGradient id="l" href="#AY"><stop offset="0" stop-color="#fff"/><stop offset=".5" stop-color="#fff" stop-opacity=".504"/><stop offset="1" stop-color="#fff"/></linearGradient><linearGradient id="m" href="#AY"><stop offset="0" stop-color="#fff" stop-opacity="0"/><stop offset=".325" stop-color="#fff"/><stop offset="1" stop-color="#fff" stop-opacity="0"/></linearGradient><linearGradient y2="53.737" x2="78.83" y1="53.737" x1="65.83" id="n" href="#x"/><filter id="o" x="-.052" y="-.082" width="1.096" height="1.202"><feGaussianBlur stdDeviation=".395"/></filter><filter id="p" x="-.071" y="-.153" width="1.142" height="1.306"><feGaussianBlur stdDeviation=".143"/></filter><filter id="q" x="-.004" y="-.008" width="1.007" height="1.016"><feGaussianBlur stdDeviation=".02"/></filter><filter id="r" x="-.005" y="-.004" width="1.009" height="1.007"><feGaussianBlur stdDeviation=".095"/></filter><radialGradient gradientTransform="matrix(-0.2343078,0.4910111,-0.3835806,-0.1484282,-35.185483,234.29923)" r="91.928" fy="-29.344" fx="-352.859" cy="-29.344" cx="-352.859" id="s" href="#AY"><stop offset="0" stop-color="#bea57f"/><stop offset=".5" stop-color="#a6865c"/><stop offset="1" stop-color="#d8ac6e"/></radialGradient><linearGradient y2="33.209" x2="60.356" y1="-54.914" x1="60.356" id="t" href="#AY"><stop offset="0" stop-color="#c2a27e"/><stop offset="1" stop-color="#c2a27e" stop-opacity="0"/></linearGradient><linearGradient y2="-23.219" x2="82.03" y1="-23.219" x1="-89.345" id="u" href="#AY"><stop offset="0" stop-color="#dcc0a1"/><stop offset="1" stop-color="#dcc0a1" stop-opacity="0"/></linearGradient><linearGradient y2="135.077" x2="-33.219" y1="-174.822" x1="108.79" id="v" href="#AY"><stop offset="0" stop-color="#d8b789"/><stop offset="1" stop-color="#b17f3a"/></linearGradient><linearGradient id="w" href="#AY"><stop offset="0" stop-color="#140f0a"/><stop offset=".21" stop-color="#af8d5f" stop-opacity=".498"/><stop offset="1" stop-color="#af8d5f" stop-opacity="0"/></linearGradient><linearGradient id="x" href="#AY"><stop offset="0" stop-color="#fcfcfc"/><stop offset="1" stop-color="#fcfcfc" stop-opacity="0"/></linearGradient><linearGradient href="#x" id="y" x1="79.778" y1="50.017" x2="92.778" y2="50.017"/><linearGradient id="z" x1="62.277" y1="71.438" x2="90.872" y2="71.438" href="#AY"><stop offset="0" stop-color="#fff"/><stop offset="1" stop-color="#fff" stop-opacity="0"/></linearGradient><linearGradient id="AA" gradientTransform="matrix(0.3507,0.03283347,0.04506244,0.2589192,336.29078,92.44013)" x1="-781.857" y1="20.049" x2="-742.671" y2="20.049" href="#AY"><stop offset="0" stop-color="#fff"/><stop offset="1" stop-color="#fff" stop-opacity="0"/></linearGradient><linearGradient id="AB" x1="74.983" y1="50.947" x2="80.436" y2="57.093" href="#AY"><stop offset="0" stop-color="#f4f0db"/><stop offset="1" stop-color="#f4f0db" stop-opacity="0"/></linearGradient><linearGradient href="#w" id="AC" x1="70.545" y1="110.906" x2="88.692" y2="82.506"/><linearGradient id="AD" x1="100.749" y1="-36.452" x2="105.672" y2="13.232" href="#AY"><stop offset="0" stop-color="#f4f0db"/><stop offset="1" stop-color="#f4f0db" stop-opacity="0"/></linearGradient><linearGradient id="AE" x1="105.103" y1="62.961" x2="101.184" y2="26.353" href="#AY"><stop offset="0"/><stop offset="1" stop-color="#f4f0db" stop-opacity="0"/></linearGradient><linearGradient id="AF" x1="91.363" y1="22.208" x2="99.75" y2="25.167" href="#AY"><stop offset="0" stop-color="#f0e0c7"/><stop offset=".25" stop-color="#c5b496"/><stop offset=".5" stop-color="#9b7e56"/><stop offset=".75" stop-color="#c9ad86"/><stop offset="1" stop-color="#e4ccab"/></linearGradient><radialGradient id="AG" cx="90.775" cy="63.162" fx="84.941" fy="57.932" r="10.518" gradientTransform="matrix(1.5026046,0,0,1.0157661,-45.623847,-0.99582513)" href="#AY"><stop offset="0" stop-color="#f9f2e7"/><stop offset="1" stop-color="#e9cfac" stop-opacity="0"/></radialGradient><filter id="AH" x="-.042" y="-.061" width="1.083" height="1.122"><feGaussianBlur stdDeviation=".376"/></filter><linearGradient href="#A" id="AI" x1="109.256" y1="68.5" x2="83.375" y2="54.25"/><linearGradient href="#A" id="AJ" x1="98.593" y1="53.168" x2="80.526" y2="43.22"/><filter id="AK" x="-.028" y="-.073" width="1.055" height="1.146"><feGaussianBlur stdDeviation="1.214"/></filter><linearGradient id="AL" x1="52.326" y1="123.757" x2="61.498" y2="107.871" href="#AY"><stop offset="0" stop-color="#fff"/><stop offset="1" stop-color="#fff" stop-opacity="0"/></linearGradient><filter id="AM" x="-.041" y="-.076" width="1.082" height="1.151"><feGaussianBlur stdDeviation=".645"/></filter><linearGradient href="#w" id="AN" x1="75.191" y1="112.028" x2="78.76" y2="100.609"/><filter id="AO" x="-.021" y="-.051" width="1.041" height="1.102"><feGaussianBlur stdDeviation=".881"/></filter><path id="AP" d="M55.962 6.85c0 1.354-.577 2.452-1.289 2.452s-1.289-1.098-1.289-2.452.577-2.452 1.289-2.452 1.289 1.098 1.289 2.452z"/><path id="AQ" d="M109.721 50.197c.188.737-.025 2.115.471 3.245.29.661.695 1.085 1.226 1.105 4.787.178 6.947.135 10.111.354.471.033 1.058.326 1.289 1.241.415 1.648.351 4.988.784 6.57.741 2.835.296-4.805-.051-7.103-.282-1.586-.97-2.281-1.82-2.325-3.371-.178-6.747-.065-10.414-.202-.254.034-.529-.264-.781-.694-.45-.767-.417-1.849-.815-2.19z"/><path id="AR" d="M112.315 97.902c.052.558-.127 1.038-.357 1.501l-3.36 4.361 3.074-4.361c-.135-.516-.19-1.073-.5-1.501-1.786-2.201-4.06-4.32-5.076-6.649l6.22 6.649z"/><path id="AS" d="M79.786 65.086c0 6.949-5.633 12.583-12.583 12.583S54.62 72.036 54.62 65.086s5.633-12.583 12.583-12.583 12.583 5.633 12.583 12.583z"/><path id="AT" d="M82.502 64.506c0 10.051-8.148 18.199-18.199 18.199s-18.199-8.148-18.199-18.199 8.148-18.199 18.199-18.199 18.199 8.148 18.199 18.199z"/><path id="AU" d="M-260.852-96.094c-.747 5.48-.675 11.055-2.187 16-.753 2.461-2.309 4.808-3.844 7.25s-3.026 5.003-3.5 7.938c-2.458 15.204-.097 31.269-2.594 46.25-3.698 22.186-10.915 43.903-16.125 66.031l-13.594 60.219c-6.531 25.574-14.179 50.873-21.281 76.344l1.719.469 21.313-76.375c5.1-19.969 8.884-40.249 13.594-60.25 5.185-22.022 12.427-43.752 16.156-66.125 2.561-15.365.166-31.46 2.563-46.281.403-2.493 1.766-4.839 3.281-7.25s3.203-4.876 4.063-7.687c1.627-5.318 1.497-10.99 2.219-16.281l-1.781-.25z"/><path id="AV" d="M-299.625-112.906c-1.689 2.895-3.595 5.752-5.156 8.875-1.572 3.143-1.932 6.77-3.5 8.563-.355.405-1.472.742-2.812 1.031s-3.018.568-3.937 2.063c-2.906 4.723-4.221 10.996-5.281 16.531-1.204 6.286-.007 12.719-1.437 18.281-2.852 11.09-7.959 21.815-11.75 32.969-8.96 26.364-18.632 52.583-26.437 79.375-10.336 35.478-18.61 71.533-27.906 107.25l2.219.563 27.906-107.187c7.775-26.688 17.433-52.847 26.406-79.25 3.733-10.984 8.855-21.745 11.781-33.125 1.604-6.237.378-12.742 1.469-18.437 1.052-5.494 2.416-11.582 5-15.781.252-.409 1.167-.719 2.469-1s2.909-.498 4.031-1.781c2.331-2.664 2.575-6.495 3.844-9.031 1.473-2.946 3.355-5.77 5.094-8.75l-2-1.156z"/><path id="AW" d="M62.156 55.719a.5.5 0 0 0-.187.875c4.049 3.429 8.124 4.405 12.063 5.625a.51.51 0 0 0 .641-.328.51.51 0 0 0-.328-.641c-3.98-1.233-7.85-2.13-11.719-5.406a.5.5 0 0 0-.469-.125z"/><path id="AX" d="M62.303 57.219c3.959 3.353 7.918 4.297 11.877 5.524"/><linearGradient id="AY" gradientUnits="userSpaceOnUse"/></defs><g transform="matrix(.783868 0 0 .783868 .830145 5.381761)"><path d="M64 5c-3.274.017-5.376.174-8.625.625-.962.153-1.75.781-1.75 1.75l-.594 9.438c-.089.955-.757 1.584-1.469 1.813-.022.007-.041.025-.062.031-4.117 1.105-8.023 2.722-11.625 4.813a2.08 2.08 0 0 1-2.187-.312l-7.094-6.25c-.686-.686-1.68-.572-2.469 0-2.617 1.979-4.235 3.354-6.562 5.656-2.303 2.327-3.678 3.946-5.656 6.563-.572.789-.685 1.783 0 2.469l6.25 7.094c.474.57.736 1.309.469 1.844l-.062.125c-2.246 3.8-3.995 7.936-5.125 12.313-.012.021-.019.042-.031.063-.317.513-.855.932-1.594 1l-9.438.594c-.969 0-1.597.788-1.75 1.75C4.174 59.624 4.017 61.726 4 65c.017 3.274.174 5.376.625 8.625.153.962.781 1.75 1.75 1.75l9.438.594c.867.08 1.443.647 1.719 1.281 1.103 4.143 2.766 8.064 4.875 11.688a2.1 2.1 0 0 1-.25 2.375l-6.25 7.094c-.685.686-.572 1.68 0 2.469 1.979 2.617 3.354 4.235 5.656 6.563 2.327 2.303 3.946 3.678 6.563 5.656.789.572 1.783.686 2.469 0l7.094-6.25a2.1 2.1 0 0 1 2.375-.25l.094-.094c3.528 2.017 7.328 3.61 11.344 4.688v.156c.736.209 1.44.859 1.531 1.844l.594 9.438c0 .969.788 1.597 1.75 1.75 3.249.451 5.351.608 8.625.625 3.274-.017 5.376-.174 8.625-.625.962-.153 1.75-.781 1.75-1.75l.594-9.437c.091-.984.795-1.635 1.531-1.844v-.156c4.016-1.078 7.816-2.67 11.344-4.687l.094.094a2.1 2.1 0 0 1 2.375.25l7.094 6.25c.686.686 1.68.572 2.469 0 2.617-1.979 4.235-3.354 6.563-5.656 2.303-2.327 3.678-3.946 5.656-6.562.572-.789.686-1.783 0-2.469l-6.25-7.094a2.1 2.1 0 0 1-.25-2.375c2.109-3.623 3.772-7.544 4.875-11.687.275-.635.851-1.201 1.719-1.281l9.438-.594c.969 0 1.597-.788 1.75-1.75.451-3.249.608-5.351.625-8.625-.017-3.274-.174-5.376-.625-8.625-.153-.962-.781-1.75-1.75-1.75l-9.437-.594c-.738-.068-1.277-.487-1.594-1-.006-.022-.026-.041-.031-.062-1.13-4.376-3.151-8.365-5.125-12.312l-.062-.125c-.267-.535-.005-1.273.469-1.844l6.25-7.094c.686-.686.572-1.68 0-2.469-1.979-2.617-3.354-4.235-5.656-6.562-2.327-2.303-3.946-3.678-6.563-5.656-.789-.572-1.783-.686-2.469 0l-7.094 6.25a2.08 2.08 0 0 1-2.187.313c-3.602-2.09-7.508-3.707-11.625-4.812-.022-.006-.041-.024-.062-.031-.712-.228-1.38-.857-1.469-1.812l-.594-9.437c0-.969-.788-1.597-1.75-1.75C69.376 5.174 67.274 5.017 64 5z" fill="#040404" stroke="#767676" stroke-width="2" filter="url(#B)" class="D E G"/><path d="M64 4c-3.274.017-5.376.174-8.625.625-.962.153-1.75.781-1.75 1.75l-.594 9.438c-.089.955-.757 1.584-1.469 1.813-.022.007-.041.025-.062.031-4.117 1.105-8.023 2.722-11.625 4.813a2.08 2.08 0 0 1-2.187-.312l-7.094-6.25c-.685-.685-1.68-.572-2.469 0a57.67 57.67 0 0 0-6.562 5.656c-2.303 2.327-3.678 3.946-5.656 6.563-.572.789-.685 1.783 0 2.469l6.25 7.094c.474.57.736 1.309.469 1.844l-.062.125c-2.246 3.8-3.995 7.936-5.125 12.313-.012.021-.019.042-.031.063-.317.513-.855.932-1.594 1l-9.438.594c-.969 0-1.597.788-1.75 1.75C4.174 58.624 4.017 60.726 4 64c.017 3.274.174 5.376.625 8.625.153.962.781 1.75 1.75 1.75l9.438.594c.867.08 1.443.647 1.719 1.281 1.103 4.143 2.766 8.064 4.875 11.688a2.1 2.1 0 0 1-.25 2.375l-6.25 7.094c-.685.685-.572 1.68 0 2.469 1.979 2.617 3.354 4.235 5.656 6.563 2.327 2.303 3.946 3.678 6.563 5.656.789.572 1.783.686 2.469 0l7.094-6.25a2.1 2.1 0 0 1 2.375-.25l.094-.094c3.528 2.017 7.328 3.61 11.344 4.688v.156c.736.209 1.44.859 1.531 1.844l.594 9.438c0 .969.788 1.597 1.75 1.75 3.249.451 5.351.608 8.625.625 3.274-.017 5.376-.174 8.625-.625.962-.153 1.75-.781 1.75-1.75l.594-9.437c.091-.984.795-1.635 1.531-1.844v-.156c4.016-1.078 7.816-2.67 11.344-4.687l.094.094a2.1 2.1 0 0 1 2.375.25l7.094 6.25c.686.686 1.68.572 2.469 0 2.617-1.979 4.235-3.354 6.563-5.656 2.303-2.327 3.678-3.946 5.656-6.562.572-.789.686-1.783 0-2.469l-6.25-7.094a2.1 2.1 0 0 1-.25-2.375c2.109-3.623 3.772-7.544 4.875-11.687.275-.635.851-1.201 1.719-1.281l9.438-.594c.969 0 1.597-.788 1.75-1.75.451-3.249.608-5.351.625-8.625-.017-3.274-.174-5.376-.625-8.625-.153-.962-.781-1.75-1.75-1.75l-9.437-.594c-.738-.068-1.277-.487-1.594-1-.006-.022-.026-.041-.031-.062-1.13-4.376-3.151-8.365-5.125-12.313l-.062-.125c-.267-.535-.005-1.273.469-1.844l6.25-7.094c.686-.686.572-1.68 0-2.469-1.979-2.617-3.354-4.235-5.656-6.562-2.327-2.303-3.946-3.678-6.563-5.656-.789-.572-1.783-.685-2.469 0l-7.094 6.25a2.08 2.08 0 0 1-2.187.313c-3.602-2.09-7.508-3.707-11.625-4.812-.022-.006-.041-.024-.062-.031-.712-.228-1.38-.857-1.469-1.812l-.594-9.437c0-.969-.788-1.597-1.75-1.75C69.376 4.174 67.274 4.017 64 4z" fill="url(#M)"/><path transform="translate(148)" mask="url(#h)" d="M-84 4c-3.274.017-5.376.174-8.625.625-.962.153-1.75.781-1.75 1.75l-.594 9.438c-.089.955-.757 1.584-1.469 1.813-.022.007-.041.025-.062.031-4.117 1.105-8.023 2.722-11.625 4.813a2.08 2.08 0 0 1-2.187-.312l-7.094-6.25c-.686-.685-1.68-.572-2.469 0-2.617 1.979-4.235 3.354-6.562 5.656-2.303 2.327-3.678 3.946-5.656 6.563-.572.789-.685 1.783 0 2.469l6.25 7.094c.474.57.736 1.309.469 1.844l-.062.125c-2.246 3.8-3.995 7.936-5.125 12.313-.012.021-.019.042-.031.063-.317.513-.855.932-1.594 1l-9.437.594c-.969 0-1.597.788-1.75 1.75-.451 3.249-.608 5.351-.625 8.625.017 3.274.174 5.376.625 8.625.153.962.781 1.75 1.75 1.75l9.438.594c.867.08 1.443.647 1.719 1.281 1.103 4.143 2.766 8.064 4.875 11.688a2.1 2.1 0 0 1-.25 2.375l-6.25 7.094c-.685.685-.572 1.68 0 2.469 1.979 2.617 3.354 4.235 5.656 6.563 2.327 2.303 3.946 3.678 6.563 5.656.789.572 1.783.686 2.469 0l7.094-6.25a2.1 2.1 0 0 1 2.375-.25l.094-.094c3.528 2.017 7.328 3.61 11.344 4.688v.156c.736.209 1.44.859 1.531 1.844l.594 9.438c0 .969.788 1.597 1.75 1.75 3.249.451 5.351.608 8.625.625 3.274-.017 5.376-.174 8.625-.625.962-.153 1.75-.781 1.75-1.75l.594-9.437c.091-.984.795-1.635 1.531-1.844v-.156c4.016-1.078 7.816-2.67 11.344-4.687l.094.094a2.1 2.1 0 0 1 2.375.25l7.094 6.25c.686.686 1.68.572 2.469 0 2.617-1.979 4.235-3.354 6.563-5.656 2.303-2.327 3.678-3.946 5.656-6.562.572-.789.686-1.783 0-2.469l-6.25-7.094a2.1 2.1 0 0 1-.25-2.375c2.109-3.623 3.772-7.544 4.875-11.687.275-.635.851-1.201 1.719-1.281l9.438-.594c.969 0 1.597-.788 1.75-1.75.451-3.249.608-5.351.625-8.625-.017-3.274-.174-5.376-.625-8.625-.153-.962-.781-1.75-1.75-1.75l-9.437-.594c-.738-.068-1.277-.487-1.594-1-.006-.022-.026-.041-.031-.062-1.13-4.376-3.151-8.365-5.125-12.312l-.062-.125c-.267-.535-.005-1.273.469-1.844l6.25-7.094c.686-.686.572-1.68 0-2.469-1.979-2.617-3.354-4.235-5.656-6.562-2.327-2.303-3.946-3.678-6.562-5.656-.789-.572-1.783-.686-2.469 0l-7.094 6.25a2.08 2.08 0 0 1-2.187.313c-3.602-2.09-7.508-3.707-11.625-4.812-.022-.006-.041-.024-.062-.031-.712-.228-1.38-.857-1.469-1.812l-.594-9.437c0-.969-.788-1.597-1.75-1.75C-78.624 4.174-80.726 4.017-84 4z" fill="url(#d)"/><path transform="translate(0 143.5)" d="M76.906-70.062C73.994-66.09 69.299-63.5 64-63.5a15.96 15.96 0 0 1-12.219-5.656l-31.5 30.75 1.281 1.344c2.327 2.303 3.946 3.678 6.563 5.656.789.572 1.783.686 2.469 0l7.094-6.25a2.1 2.1 0 0 1 2.375-.25l.094-.094c3.528 2.017 7.328 3.61 11.344 4.688v.156c.736.209 1.44.859 1.531 1.844l.594 9.438c0 .969.788 1.597 1.75 1.75 3.249.451 5.351.608 8.625.625 3.274-.017 5.376-.174 8.625-.625.962-.153 1.75-.781 1.75-1.75l.594-9.437c.091-.984.795-1.635 1.531-1.844v-.156c4.016-1.078 7.816-2.67 11.344-4.687l.094.094a2.1 2.1 0 0 1 2.375.25l7.094 6.25c.686.686 1.68.572 2.469 0 2.617-1.979 4.235-3.354 6.563-5.656.485-.491.895-.931 1.313-1.375L76.906-70.062z" fill="url(#c)" filter="url(#g)" class="D J N"/><path transform="matrix(-1 0 0 -1 127.98705 -15.49155)" d="M76.906-70.062C73.994-66.09 69.299-63.5 64-63.5a15.96 15.96 0 0 1-12.219-5.656l-31.5 30.75 1.281 1.344c2.327 2.303 3.946 3.678 6.563 5.656.789.572 1.783.686 2.469 0l7.094-6.25a2.1 2.1 0 0 1 2.375-.25l.094-.094c3.528 2.017 7.328 3.61 11.344 4.688v.156c.736.209 1.44.859 1.531 1.844l.594 9.438c0 .969.788 1.597 1.75 1.75 3.249.451 5.351.608 8.625.625 3.274-.017 5.376-.174 8.625-.625.962-.153 1.75-.781 1.75-1.75l.594-9.437c.091-.984.795-1.635 1.531-1.844v-.156c4.016-1.078 7.816-2.67 11.344-4.687l.094.094a2.1 2.1 0 0 1 2.375.25l7.094 6.25c.686.686 1.68.572 2.469 0 2.617-1.979 4.235-3.354 6.563-5.656.485-.491.895-.931 1.313-1.375L76.906-70.062z" fill="url(#c)" filter="url(#g)" class="D J N"/><path d="M64 4c-3.274.017-5.376.174-8.625.625-.962.153-1.75.781-1.75 1.75l-.594 9.438c-.089.955-.757 1.584-1.469 1.813-.022.007-.041.025-.062.031-4.117 1.105-8.023 2.722-11.625 4.813a2.08 2.08 0 0 1-2.187-.312l-7.094-6.25c-.686-.685-1.68-.572-2.469 0-2.617 1.979-4.235 3.354-6.562 5.656-2.303 2.327-3.678 3.946-5.656 6.563-.572.789-.685 1.783 0 2.469l6.25 7.094c.474.57.736 1.309.469 1.844l-.062.125c-2.246 3.8-3.995 7.936-5.125 12.313-.012.021-.019.042-.031.063-.317.513-.855.932-1.594 1l-9.438.594c-.969 0-1.597.788-1.75 1.75C4.174 58.624 4.017 60.726 4 64c.017 3.274.174 5.376.625 8.625.153.962.781 1.75 1.75 1.75l9.438.594c.867.08 1.443.647 1.719 1.281 1.103 4.143 2.766 8.064 4.875 11.688a2.1 2.1 0 0 1-.25 2.375l-6.25 7.094c-.685.685-.572 1.68 0 2.469 1.979 2.617 3.354 4.235 5.656 6.563 2.327 2.303 3.946 3.678 6.563 5.656.789.572 1.783.686 2.469 0l7.094-6.25a2.1 2.1 0 0 1 2.375-.25l.094-.094c3.528 2.017 7.328 3.61 11.344 4.688v.156c.736.209 1.44.859 1.531 1.844l.594 9.438c0 .969.788 1.597 1.75 1.75 3.249.451 5.351.608 8.625.625 3.274-.017 5.376-.174 8.625-.625.962-.153 1.75-.781 1.75-1.75l.594-9.437c.091-.984.795-1.635 1.531-1.844v-.156c4.016-1.078 7.816-2.67 11.344-4.687l.094.094a2.1 2.1 0 0 1 2.375.25l7.094 6.25c.686.686 1.68.572 2.469 0 2.617-1.979 4.235-3.354 6.563-5.656 2.303-2.327 3.678-3.946 5.656-6.562.572-.789.686-1.783 0-2.469l-6.25-7.094a2.1 2.1 0 0 1-.25-2.375c2.109-3.623 3.772-7.544 4.875-11.687.275-.635.851-1.201 1.719-1.281l9.438-.594c.969 0 1.597-.788 1.75-1.75.451-3.249.608-5.351.625-8.625-.017-3.274-.174-5.376-.625-8.625-.153-.962-.781-1.75-1.75-1.75l-9.437-.594c-.738-.068-1.277-.487-1.594-1-.006-.022-.026-.041-.031-.062-1.13-4.376-3.151-8.365-5.125-12.312l-.062-.125c-.267-.535-.005-1.273.469-1.844l6.25-7.094c.686-.686.572-1.68 0-2.469-1.979-2.617-3.354-4.235-5.656-6.562-2.327-2.303-3.946-3.678-6.563-5.656-.789-.572-1.783-.686-2.469 0l-7.094 6.25a2.08 2.08 0 0 1-2.187.313c-3.602-2.09-7.508-3.707-11.625-4.812-.022-.006-.041-.024-.062-.031-.712-.228-1.38-.857-1.469-1.812l-.594-9.437c0-.969-.788-1.597-1.75-1.75C69.376 4.174 67.274 4.017 64 4z" opacity=".732" fill="url(#N)"/><path d="m 63.969328,3.96691 c -3.27385,0.01728 -5.37577,0.17392 -8.625,0.625 -0.96195,0.15318 -1.75,0.78055 -1.75,1.75 l -0.59375,9.4375 c -0.08851,0.95519 -0.75664,1.58433 -1.46875,1.8125 -0.02183,0.007 -0.0406,0.02503 -0.0625,0.03125 -4.11684,1.10517 -8.02293,2.7221 -11.625,4.8125 -0.65155,0.28193 -1.49213,0.26494 -2.1875,-0.3125 l -7.09375,-6.25 c -0.6855,-0.6855 -1.68023,-0.57188 -2.46875,0 -2.61651,1.97859 -4.23532,3.3535 -6.5625,5.65625 -2.30274,2.32718 -3.67766,3.94598 -5.65625,6.5625 -0.57188,0.78852 -0.6855,1.78325 0,2.46875 l 6.25,7.09375 c 0.47372,0.57048 0.7362,1.30885 0.46875,1.84375 l -0.0625,0.125 c -2.24552,3.7996 -3.99486,7.936315 -5.125,12.312505 -0.01184,0.02064 -0.01867,0.04216 -0.03125,0.0625 -0.31721,0.512841 -0.85539,0.931584 -1.59375,1 l -9.4375003,0.59375 c -0.9694401,0 -1.5968101,0.78805 -1.7500001,1.75 -0.45108,3.249232 -0.60772,5.351147 -0.625,8.625 0.01728,3.273853 0.17392,5.375768 0.625,8.625 0.15319,0.961946 0.78056,1.75 1.7500001,1.75 l 9.4375003,0.59375 c 0.86735,0.08037 1.44344,0.646567 1.71875,1.28125 1.10323,4.143354 2.76625,8.064208 4.875,11.6875 0.37292,0.668507 0.38163,1.614364 -0.25,2.375 l -6.25,7.09375 c -0.6855,0.685496 -0.57188,1.680225 0,2.468755 1.97859,2.61651 3.35351,4.23531 5.65625,6.5625 2.32718,2.30274 3.94598,3.67766 6.5625,5.65625 0.78852,0.57188 1.78325,0.6855 2.46875,0 l 7.09375,-6.25 c 0.76064,-0.63163 1.70649,-0.62292 2.375,-0.25 l 0.09375,-0.0937 c 3.52766,2.01717 7.32819,3.60952 11.34375,4.6875 l 0,0.15625 c 0.7364,0.20901 1.44003,0.85927 1.53125,1.84375 l 0.59375,9.4375 c 0,0.96944 0.78805,1.59681 1.75,1.75 3.24923,0.45108 5.35115,0.60772 8.625,0.625 3.27385,-0.0173 5.37577,-0.17392 8.625,-0.625 0.96195,-0.15319 1.75,-0.78056 1.75,-1.75 l 0.59375,-9.4375 c 0.09122,-0.98448 0.79485,-1.63474 1.53125,-1.84375 l 0,-0.15625 c 4.01556,-1.07798 7.8161,-2.67033 11.34375,-4.6875 l 0.09375,0.0937 c 0.66851,-0.37292 1.61436,-0.38163 2.375,0.25 l 7.09375,6.25 c 0.6855,0.68551 1.68024,0.57189 2.46875,0 2.616512,-1.97859 4.235312,-3.35351 6.562502,-5.65625 2.30274,-2.32719 3.67766,-3.94599 5.65625,-6.5625 0.57189,-0.78852 0.68551,-1.78325 0,-2.468755 l -6.25,-7.09375 c -0.63163,-0.76064 -0.62292,-1.706493 -0.25,-2.375 2.10875,-3.623292 3.77177,-7.544146 4.875,-11.6875 0.27531,-0.634683 0.8514,-1.20088 1.71875,-1.28125 l 9.4375,-0.59375 c 0.96945,0 1.59682,-0.788054 1.75,-1.75 0.45108,-3.249232 0.60772,-5.351147 0.625,-8.625 -0.0173,-3.273853 -0.17392,-5.375768 -0.625,-8.625 -0.15318,-0.96195 -0.78055,-1.75 -1.75,-1.75 l -9.4375,-0.59375 c -0.73836,-0.06842 -1.27654,-0.487159 -1.59375,-1 -0.006,-0.02192 -0.0256,-0.04059 -0.0313,-0.0625 -1.13014,-4.37619 -3.15121,-8.36491 -5.125,-12.312505 l -0.0625,-0.125 c -0.26745,-0.5349 -0.005,-1.27327 0.46875,-1.84375 l 6.25,-7.09375 c 0.68551,-0.68551 0.57188,-1.68023 0,-2.46875 -1.97859,-2.61652 -3.35351,-4.23532 -5.65625,-6.5625 -2.32718,-2.30275 -3.94598,-3.67766 -6.562502,-5.65625 -0.78852,-0.57188 -1.78324,-0.68551 -2.46875,0 l -7.09375,6.25 c -0.69538,0.57744 -1.53595,0.59443 -2.1875,0.3125 -3.60207,-2.0904 -7.50816,-3.70733 -11.625,-4.8125 -0.0219,-0.0062 -0.04067,-0.02425 -0.0625,-0.03125 -0.71211,-0.22817 -1.38024,-0.85731 -1.46875,-1.8125 l -0.59375,-9.4375 c 0,-0.96945 -0.78805,-1.59682 -1.75,-1.75 -3.24923,-0.45108 -5.35115,-0.60772 -8.625,-0.625 z" stroke="url(#O)" filter="url(#e)" class="C D E G"/><path d="M15.486 28.938c-.16.585-.056 1.194.406 1.656l6.25 7.094c.214.257.37.552.469.844.267-.535.005-1.273-.469-1.844l-6.25-7.094c-.197-.197-.333-.42-.406-.656zm96.969 0c-.073.236-.178.459-.375.656l-6.25 7.094c-.466.561-.715 1.28-.469 1.813.1-.279.264-.566.469-.812l6.25-7.094c.462-.462.535-1.071.375-1.656zM123.986 63.5c-.031 2.98-.199 5.054-.625 8.125-.153.962-.781 1.75-1.75 1.75l-9.437.594c-.867.08-1.443.647-1.719 1.281-1.103 4.143-2.766 8.064-4.875 11.688-.237.425-.348.969-.219 1.5.044-.184.13-.341.219-.5 2.109-3.623 3.772-7.544 4.875-11.687.275-.635.851-1.201 1.719-1.281l9.438-.594c.969 0 1.597-.788 1.75-1.75.451-3.249.608-5.351.625-8.625v-.5zM4.018 65.281c.051 2.57.206 4.551.594 7.344.153.962.781 1.75 1.75 1.75l9.437.594c.867.08 1.443.647 1.719 1.281 1.103 4.143 2.766 8.064 4.875 11.688a1.89 1.89 0 0 1 .188.5c.129-.531.05-1.075-.187-1.5-2.109-3.623-3.772-7.544-4.875-11.687-.275-.635-.851-1.201-1.719-1.281l-9.437-.594c-.969 0-1.597-.788-1.75-1.75-.338-2.437-.521-4.219-.594-6.344zm11.469 32.781c-.181.585-.001 1.251.406 1.813 1.979 2.617 3.354 4.235 5.656 6.563 2.327 2.303 3.946 3.678 6.563 5.656.789.572 1.783.686 2.469 0l7.094-6.25a2.1 2.1 0 0 1 2.375-.25l.094-.094c3.528 2.017 7.328 3.61 11.344 4.688v.156c.736.209 1.44.859 1.531 1.844l.594 9.438c0 .969.788 1.597 1.75 1.75 3.249.451 5.351.608 8.625.625 3.274-.017 5.376-.174 8.625-.625.962-.153 1.75-.781 1.75-1.75l.594-9.437c.091-.984.795-1.635 1.531-1.844v-.156c4.016-1.078 7.816-2.67 11.344-4.687l.094.094a2.1 2.1 0 0 1 2.375.25l7.094 6.25c.686.686 1.68.572 2.469 0 2.617-1.979 4.235-3.354 6.563-5.656 2.303-2.327 3.678-3.946 5.656-6.562.407-.562.556-1.228.375-1.812a2.45 2.45 0 0 1-.375.813c-1.979 2.617-3.354 4.235-5.656 6.563-2.327 2.303-3.946 3.678-6.562 5.656-.789.572-1.783.686-2.469 0l-7.094-6.25a2.1 2.1 0 0 0-2.375-.25l-.094-.094c-3.528 2.017-7.328 3.61-11.344 4.688v.156c-.736.209-1.44.859-1.531 1.844l-.594 9.438c0 .969-.788 1.597-1.75 1.75-3.249.451-5.351.608-8.625.625-3.274-.017-5.376-.174-8.625-.625-.962-.153-1.75-.781-1.75-1.75l-.594-9.437c-.091-.984-.795-1.635-1.531-1.844v-.156c-4.016-1.078-7.816-2.67-11.344-4.687l-.094.094a2.1 2.1 0 0 0-2.375.25l-7.094 6.25c-.686.686-1.68.572-2.469 0-2.617-1.979-4.235-3.354-6.562-5.656-2.303-2.327-3.678-3.946-5.656-6.562a2.54 2.54 0 0 1-.406-.812z" opacity=".732" fill="#fff"/><path d="M55.234 4.109c4.559-.436 12.193-.603 16.944-.036 1.906.228 2.538 2.878 2.145 7.364-.027.311-.572-5.961-2.502-6.041-4.671-.195-11.68-.467-16.229 0-1.046.107-1.962 2.193-1.966 1.859-.018-1.394-.246-2.968 1.609-3.146z" fill="url(#b)" filter="url(#Z)" class="B"/><use href="#AP" transform="matrix(.899969 .435954 -.435954 .899969 8.657452 -23.80688)" fill="url(#a)"/><use href="#AP" transform="matrix(-.899969 .435954 .435954 .899969 119.08978 -23.80688)" fill="url(#V)"/><path d="M51.362 18.3c-4.048 1.238-7.859 2.71-11.526 4.9-.997.364-1.596.003-2.427-.506l-6.875-6.113c-.433-.358-1.502-.925-2.325-.202-4.572 3.96-8.216 8.205-12.234 12.335l1.49-.789c3.572-3.458 7.012-6.961 10.845-10.333.57-.472 1.423-.291 1.921.202l6.584 5.804c1.006.984 2.29 1.379 3.628.916 3.645-2.35 7.471-3.979 11.498-5.567.845-.349 1.516-1.7 1.403-2.807-.117.714-.999 1.847-1.981 2.16z" fill="url(#Y)" filter="url(#X)" class="B"/><use href="#AP" transform="matrix(.203427 1.236932 -.97909 .256999 24.508092 -52.470535)" fill="url(#V)"/><g transform="matrix(-1 0 0 1 128.37557 0)"><path d="M51.362 18.3c-4.048 1.238-7.859 2.71-11.526 4.9-.997.364-1.167-.497-1.998-1.006l-6.875-6.113c-.433-.358-1.93-.424-2.754.298-5.214 3.318-8.714 7.707-12.234 12.335l1.49-.789c2.484-2.865 6.004-6.412 10.845-10.333.57-.472 1.852-.791 2.35-.298l6.584 5.804c1.006.984 1.861 1.88 3.199 1.417 3.645-2.35 7.471-3.979 11.498-5.567.845-.349 1.516-1.7 1.403-2.807-.117.714-.999 1.847-1.981 2.16z" fill="url(#W)" filter="url(#X)" class="B"/><use href="#AP" transform="matrix(.203427 1.236932 -.97909 .256999 24.508092 -52.470535)" fill="url(#V)"/></g><use href="#AP" transform="matrix(-.99469 -.481229 -.357451 .961293 168.32567 49.779168)" opacity=".32" fill="url(#T)" filter="url(#U)"/><use href="#AP" transform="matrix(.99469 -.481229 .357451 .961293 -39.943898 50.082486)" opacity=".32" fill="url(#T)" filter="url(#U)"/><g class="B"><use href="#AQ" fill="url(#S)" filter="url(#R)"/><use href="#AQ" transform="matrix(-1 0 0 1 128.17026 0)" fill="url(#Q)" filter="url(#R)"/><g fill="#fff"><use href="#AR" filter="url(#P)"/><use href="#AR" transform="matrix(-1 0 0 1 128.41914 0)" filter="url(#P)"/></g></g><path d="m 366.04225,108.83997 c 0,30.48187 -24.71044,55.19231 -55.1923,55.19231 -30.48187,0 -55.19231,-24.71044 -55.19231,-55.19231 0,-30.481866 24.71044,-55.192303 55.19231,-55.192303 30.48186,0 55.1923,24.710437 55.1923,55.192303 z" transform="matrix(.589213 0 0 .589213 -119.15695 -.129972)" stroke="url(#L)" stroke-width="1.697" filter="url(#K)" class="C E G"/><path d="M64 31.469c-17.951 0-32.531 14.58-32.531 32.531S46.049 96.531 64 96.531 96.531 81.951 96.531 64 81.951 31.469 64 31.469z" fill="#343434" fill-opacity=".078" filter="url(#K)"/><use href="#AS" transform="matrix(1.477273 0 .011364 1.420455 -35.530531 -25.361425)" filter="url(#G)" class="O"/><use href="#AS" transform="matrix(1.477273 0 .011364 1.420455 -35.530531 -22.361425)" fill="#515642" filter="url(#G)" class="O"/><use href="#AT" fill="url(#J)"/><path d="M64.313 45.598c-10.446 0-18.934 8.456-18.934 18.902s8.488 18.934 18.934 18.934 18.902-8.488 18.902-18.934-8.456-18.902-18.902-18.902zm0 1.332a17.57 17.57 0 1 1 0 35.14 17.57 17.57 0 1 1 0-35.14z" fill="#3b4d09" filter="url(#I)"/><path d="M77.686 55.689c0 4.977-6.031 9.011-13.471 9.011s-13.471-4.034-13.471-9.011 6.031-9.205 13.471-9.205 13.471 4.228 13.471 9.205z" fill="url(#H)"/><use href="#AT" fill="url(#F)" filter="url(#E)"/><path d="M64 30.781c-18.338 0-33.219 14.88-33.219 33.219S45.662 97.219 64 97.219 97.219 82.338 97.219 64 82.338 30.781 64 30.781zm0 1.281c17.619 0 31.938 14.318 31.938 31.938S81.619 95.938 64 95.938 32.063 81.619 32.063 64 46.381 32.063 64 32.063z" opacity=".819" fill="url(#C)" filter="url(#D)"/></g><path d="M-245.244 309.843h0z" class="C F"/><g transform="translate(2.719 -.906)" class="D"><path d="M126.75 75.063c-9.206-.53-22.595 2.368-35.812 5.438s-26.269 6.318-34.344 6.563c-.099.011-.195.043-.281.094L36.724 98.233c-.598.295-.255 1.43.406 1.344l6.063-.844a.71.71 0 0 0 .156-.062l1.969-.75-2.031 1.531c-.502.367-.118 1.351.5 1.281l5.719-.375.031 1.188-1.219 1.906c-.011.01-.021.02-.031.031 0 0-.075.143-.156.344s-.179.446-.156.813c.011.183.064.422.219.625s.39.353.625.406c.47.107.918-.02 1.531-.25.851-.319 2.522-.505 4.198-.426.067.003.059-.003.125 0l-.75.313c-.611.237-.405 1.369.25 1.375l4.922 1.725a.74.74 0 0 0 .156-.031l4.938-1.031.875 4.219c.091.404.587.66.969.5l6.906-2.937 1.563 1.688a.71.71 0 0 0 .094.094l.813.594-.5 2.125c-.1.513.527 1.003 1 .781l3.875-2-1.094 1.469a.75.75 0 0 0 .313 1.094l3.656 1.375a.73.73 0 0 0 .75-.125l3.469-3.25 50.406-24.281a.72.72 0 0 0 .375-.469c1.293-4.383.772-7.658-1.281-9.812s-5.44-3.103-9.625-3.344z" fill="url(#AN)" filter="url(#AO)" class="B"/><path d="M98.072 3.067c3.796-.873 6.218.807 8.387 2.959L92.537 45.61l-8.387-2.959L98.072 3.067z" fill="url(#AF)" stroke-width=".4" stroke-dashoffset="4.15" class="E F P"/><path d="M97.981 3.157c3.796-.873 6.218.807 8.387 2.959L92.537 45.61l-8.387-2.959L97.981 3.157z" fill="url(#AE)"/><path d="M98.253 3.157c3.796-.873 6.218.807 8.387 2.959L92.537 45.61l-8.387-2.959L98.253 3.157z" fill="url(#AD)"/><g class="B"><path d="M86.441 112.375l50.53-24.349c8.015-27.177-56.391-.959-80.361-.234l-24.859 12.706 6.077-.829 6.57-2.483-5.97 4.456 6.483-.435.099 2.881 2.151-4.14-3.532 5.521s-1.025 1.78 1.184.951 7.931-.122 7.931-.122l-3.559 1.416 9.912-.035 5.637-1.19 1.022 4.922 7.378-3.137 1.889 2.068 1.154.878-.585 2.555 6.557-3.405-2.889 3.937 3.645 1.367 3.536-3.301h0z" fill="url(#AC)" filter="url(#AK)"/><path transform="matrix(1.019354 0 0 1.019354 16.712295 -9.982382)" d="M66.645 50.081c-3.575-.851-1.693 4.199-2.939 5.964-1.184 1.677-5.286 1.727-7.15 3.184-3.167 2.475-5.724 5.523-7.945 8.614-2.514 3.5-3.896 7.571-6.26 11.157-3.142 4.767-6.601 9.394-10.256 13.903l-10.23 12.62 5.97-5.68-5.115 6.31 4.967-4.306-4.642 6.171 2.656.983 2.054.376.447 1.143-2.707 1.581 5.215 1.406s2.519-1.232 3.335-2.257 7.815-9.36 7.815-9.36l-9.349 11.969 3.66-.391.635.793 2.974 1.379 6.306-8.034-4.318 8.036 2.306.399.603.607 1.924-.37 1.808 1.821-.311 1.072 4.371-3.444-.964 3.029 1.761-1.303.927 2.472 1.451-.231.985 1.377 1.419-.418-.09.909 2.332-.883 1.96-5.872.223 6.993 2.909 1.006 2.387-9.135-1.033 8.344 6.126-39.06c.687-4.379 2.499-8.512 2.716-12.957.128-2.618-1.335-5.522-1.681-8.231-.113-.881.183-1.698.303-2.54.216-1.512 1.552-3.452.704-4.521-.691-.872-3.546-3.504-8.261-4.627z" fill="url(#s)" stroke-width=".059" filter="url(#r)" class="F"/><path d="M83.615 41.427c-.849 1.228-1.952 2.377-2.593 3.745-.358.763-.393 1.661-.493 2.493s-.265 1.595-.81 2.097c-.744.686-2.02 1.081-3.355 1.477s-2.725.79-3.631 1.562c-2.788 2.378-4.498 5.553-6.457 8.429-3.183 4.675-5.337 9.852-8.975 14.219-6.764 8.121-14.859 15.543-22.299 23.327l.553.33c7.43-7.773 15.524-15.198 22.307-23.342 3.678-4.416 5.842-9.608 9.002-14.248 1.971-2.894 3.673-6.035 6.394-8.356.811-.691 2.114-1.087 3.45-1.484s2.701-.794 3.543-1.571c.647-.597.816-1.429.919-2.278s.143-1.721.465-2.408c.612-1.307 1.688-2.452 2.556-3.709l-.578-.285z" fill="#926b3f"/><path d="M81.561-144.969c-3.048 4.975-6.492 9.677-8.812 14.781-1.28 2.815-1.837 6.256-2.562 9.625s-1.635 6.701-3.812 9.281c-2.832 3.357-6.99 5.421-11.062 7.469s-8.051 4.081-10.75 7.094c-9.059 10.112-15.576 23.068-22.75 35.156-11.5 19.379-20.393 40.561-33.281 59.25-23.77 34.467-50.98 66.596-76.437 99.844v1C-62.45 65.283-35.24 33.155-11.47-1.312c12.889-18.689 21.781-39.871 33.281-59.25 7.174-12.089 13.691-25.044 22.75-35.156 2.699-3.013 6.677-5.046 10.75-7.094s8.23-4.112 11.063-7.469c2.177-2.581 3.087-5.912 3.813-9.281s1.283-6.81 2.563-9.625c2.434-5.355 6.131-10.249 9.281-15.5l-.469-.281z" fill="url(#u)" transform="matrix(.3507 .032833 .045062 .258919 61.414255 76.431628)"/><path d="M84.344 41.496c-.849 1.228-1.952 2.377-2.593 3.745-.358.763-.393 1.661-.493 2.493s-.265 1.595-.81 2.097c-.744.686-2.02 1.081-3.355 1.477s-2.725.79-3.631 1.562c-2.788 2.378-4.498 5.553-6.457 8.429-3.183 4.675-5.337 9.852-8.975 14.219-6.764 8.121-14.859 15.543-22.299 23.327l.351.033c7.44-7.784 15.536-15.206 22.299-23.327 3.637-4.367 5.791-9.544 8.975-14.219 1.959-2.876 3.669-6.051 6.457-8.429.906-.773 2.296-1.166 3.631-1.562s2.61-.791 3.355-1.477c.545-.503.709-1.265.81-2.097s.136-1.729.493-2.493c.622-1.328 1.676-2.452 2.514-3.641l-.272-.137z" fill="#4a341b"/><path d="M102.872-134.498c-6.305 8.056-11.494 17.034-18.562 23.781-7.655 7.307-20.265 10.79-27.156 19.875-8.928 11.768-12.687 27.355-18.812 40.719-5.25 11.454-9.802 23.188-15.562 34.219C12.357 4.052-.476 22.931-10.472 43.315c-7.783 15.871-12.432 33.098-19.75 48.844-3.979 8.561-9.583 16.438-14.469 24.813l2.156 1.281c4.808-8.242 10.484-16.189 14.594-25.031C-20.5 77.213-15.862 60.02-8.222 44.44 1.67 24.269 14.486 5.38 24.997-14.748c5.847-11.197 10.386-22.951 15.594-34.312 6.266-13.671 10.079-29.099 18.563-40.281 6.161-8.122 18.555-11.652 26.875-19.594 7.42-7.082 12.655-16.132 18.812-24l-1.969-1.562z" fill="url(#v)" transform="matrix(.3507 .032833 .045062 .258919 59.802835 75.906678)"/><path d="M89.771 44.309c-1.79 1.828-3.221 3.978-5.49 5.559-2.56 1.783-6.747 2.29-8.542 4.191-2.471 2.617-3.113 6.486-4.695 9.82-1.314 2.771-2.376 5.665-3.923 8.372-2.779 4.866-6.423 9.336-8.983 14.234-1.977 3.783-2.829 8.082-4.717 11.983-1.043 2.155-2.675 4.026-3.99 6.002l-.329-.158c-.017.025-.035.05-.052.075l.814.403c1.315-1.976 2.947-3.847 3.99-6.002 1.888-3.901 2.74-8.2 4.717-11.983 2.56-4.898 6.203-9.368 8.983-14.234 1.546-2.707 2.608-5.601 3.923-8.372 1.581-3.334 2.224-7.203 4.695-9.82 1.795-1.901 5.982-2.408 8.542-4.191 2.283-1.59 3.711-3.761 5.516-5.596l-.459-.282z" fill="#ead7bd"/><path d="M90.473 44.37c-.187 1.88.07 3.898-.538 5.521-.18.48-.734.862-1.299 1.271s-1.145.847-1.269 1.505c-.674 3.574 1.061 7.913-.079 11.191-1.627 4.678-5.643 8.606-8.352 13.028-2.443 3.988-4.343 8.221-7.012 12.055-2.437 3.5-5.969 6.496-8.381 10.072-2.051 3.041-3.287 6.454-4.917 9.656l.628.266c1.642-3.225 2.879-6.629 4.901-9.626 2.376-3.522 5.912-6.505 8.384-10.056 2.692-3.866 4.602-8.104 7.031-12.069 2.679-4.372 6.712-8.312 8.373-13.089 1.199-3.448-.565-7.813.082-11.239.094-.498.586-.889 1.144-1.294s1.18-.82 1.41-1.436c.647-1.727.386-3.772.567-5.598l-.674-.159z" fill="#977248"/><path d="M58.481-99.275c-1.49 7.45-1.762 15.277-4.344 21.875-.763 1.949-2.562 3.655-4.406 5.469s-3.746 3.746-4.437 6.375c-3.758 14.279-.916 30.679-5.875 43.969C32.342-2.621 18.72 14.276 8.638 32.631-.456 49.185-8.099 66.506-17.769 82.538c-8.829 14.638-20.58 27.699-29.375 42.625-7.48 12.693-12.783 26.548-19.125 39.719l1.688.813c6.387-13.266 11.69-27.084 19.063-39.594 8.664-14.703 20.419-27.715 29.375-42.562 9.753-16.169 17.428-33.511 26.469-49.969C20.296 15.417 33.974-1.534 41.2-20.9c5.216-13.98 2.304-30.469 5.906-44.156.524-1.991 2.146-3.707 3.969-5.5s3.834-3.655 4.813-6.156c2.747-7.02 3.021-14.95 4.469-22.187l-1.875-.375z" fill="url(#t)" transform="matrix(.3507 .032833 .045062 .258919 74.115675 67.894618)"/></g><g transform="matrix(.3507 .032833 .045062 .258919 188.59553 79.360688)" class="B"><use href="#AU" fill="#613f23"/><use href="#AU" x="-1.2" y="-0.9" fill="#ceb58e"/></g><g transform="matrix(.3507 .032833 .045062 .258919 200.9718 83.512048)" class="B"><use href="#AV" fill="#83653d"/><use href="#AV" x="-1" y="-2" fill="#ab6c40"/></g><g class="B"><path d="M45.192 102.082c1.351-1.462-1.688.171-.545-1.31 6.34-8.222 13.202-19.435 18.478-27.756-6.778 9.399-10.09 18.953-17.933 29.066zm30.569 11.988c1.351-1.462-.997.458-.545-1.31 2.599-10.159 4.888-26.032 10.164-34.354-6.292 9.816-5.756 25.142-9.619 35.664zm-11.082-5.005c1.351-1.462-1.14.411-.545-1.31C67.397 98.318 77.546 75.114 81.43 66l-16.751 43.064z" class="K"/><path d="M80.286 50.947c-6.796.237-8.794 7.594-12.555 12.292 3.824-4.751 6.566-11.477 12.555-12.292z" fill="url(#AB)"/></g><path d="m 74.975965,64.103748 -3.69474,7.8839 -6.52048,9.11569" stroke="url(#AA)" stroke-width=".299" class="C"/><g class="B"><path d="M82.078 55.417c1.017 6.631-1.196 7.296-1.944 10.666.719-3.559 4.243-7.274 1.944-10.666z" fill="#f4f0db"/><use href="#AW" fill="#8c8c8c" transform="matrix(1.019354 0 0 1.019354 16.712295 -9.982382)" class="I"/></g><use href="#AX" transform="matrix(1.019354 0 0 1.019354 16.712295 -9.982382)" filter="url(#p)" class="C F H Q"/><g class="B"><path d="M68.259 61.409c-3.481 4.118-7.648 11.875-12.533 18.8 4.883-5.935 9.058-13.508 12.533-18.8z"/><path d="M55.177 106.199c.758-.91.049 3.02 1.34.308 5.127-10.769 11.648-21.842 16.337-31.244l-17.678 30.936zm-8.667-1.867c.758-.91.049 3.02 1.34.308 5.127-10.769 7.915-10.242 12.604-19.644L46.51 104.332zm33.733 7.867c.758-.91.153 3.906.807.975 1.66-7.436 2.048-6.909 2.337-12.577-1.226 4.272-1.918 8.617-3.144 11.603z" fill="#863e3e"/><path d="M62.528 65.045a.5.5 0 0 0-.375.531c.045.701.538 1.285 1.219 1.938s1.611 1.34 2.688 2.063c2.153 1.445 4.915 2.966 7.5 4.188 2.668 1.261 6.481 2.566 9.875 3.406 1.697.42 3.304.719 4.594.844.645.062 1.2.073 1.688.031s.912-.124 1.25-.375a.5.5 0 0 0-.057-.922.5.5 0 0 0-.537.14c-.072.053-.356.123-.75.156s-.894.027-1.5-.031c-1.212-.117-2.772-.4-4.437-.812-3.33-.825-7.115-2.128-9.687-3.344-2.544-1.202-5.282-2.689-7.375-4.094-1.046-.703-1.951-1.382-2.562-1.969s-.896-1.123-.906-1.281a.5.5 0 0 0-.625-.469h0z" fill="gray"/></g><path d="M62.659 66.542c.111 1.718 5.982 5.348 11.111 7.772 5.24 2.476 15.249 5.177 16.889 3.961h0" filter="url(#o)" class="C F P"/><g class="B"><path d="M62.622 65.363c-.132.007-.256.059-.344.156.003.008-.003.023 0 .031.194.472.592.894 1.094 1.375.68.653 1.611 1.371 2.688 2.094 2.153 1.445 4.915 2.966 7.5 4.188 2.668 1.261 6.481 2.566 9.875 3.406 1.697.42 3.304.719 4.594.844.645.062 1.2.073 1.688.031.451-.038.832-.135 1.156-.344-.158-.067-.351-.046-.5.063-.072.053-.356.154-.75.188s-.894.027-1.5-.031c-1.212-.117-2.772-.431-4.437-.844-3.33-.825-7.115-2.097-9.687-3.312-2.544-1.202-5.282-2.72-7.375-4.125-1.046-.703-1.951-1.382-2.562-1.969s-.896-1.092-.906-1.25a.52.52 0 0 0-.156-.375c-.101-.095-.237-.134-.375-.125z" fill="url(#z)"/><path d="M88.259 69.009c-.81 4.178-2.748 13.435-6.4 30.4 4.028-10.607 5.131-20.483 6.4-30.4z" class="K"/><path d="M82.526 52.342c-3.481 4.118-5.248 7.341-8.133 14.533 3.283-7.135 4.658-9.242 8.133-14.533zM69.192 77.676c-3.481 4.118-9.782 17.608-13.733 24.933 3.95-7.269 10.258-19.642 13.733-24.933z"/><path d="M82.526 78.742c-2.548 4.918-9.515 22.541-13.467 29.867 3.95-7.269 10.791-24.175 13.467-29.867z" fill="#ddd298"/><path d="M90.526 56.076c-.415 3.451-.048 9.875-4.533 17.6 3.283-8.335 4.524-13.375 4.533-17.6z" fill="#bb7c3e"/><path d="M80.059 46.951c-.14.036-.215.126-.281.25.029.046.05.09.094.125 4.128 3.495 8.298 4.506 12.313 5.75.239.077.475-.04.594-.25-.062-.1-.16-.211-.281-.25-4.057-1.257-7.994-2.16-11.937-5.5a.55.55 0 0 0-.5-.125z" fill="url(#y)" class="I"/><use href="#AW" fill="#8c8c8c" transform="matrix(.902594 0 0 .902594 26.677625 -9.513772)" class="I"/></g><use href="#AX" transform="matrix(.902594 0 0 .902594 26.677625 -9.513772)" filter="url(#p)" class="C F H Q"/><g class="B"><path transform="matrix(.885457 0 0 .885457 24.229835 -3.968062)" d="M66.111 50.67c-.14.036-.215.126-.281.25.029.046.05.09.094.125 4.128 3.495 8.298 4.506 12.313 5.75.239.077.475-.04.594-.25-.063-.1-.16-.211-.281-.25-4.057-1.257-7.994-2.16-11.937-5.5a.55.55 0 0 0-.5-.125z" fill="url(#n)" class="I"/><path d="M62.867 103.627c1.351-1.462-1.14.411-.545-1.31 3.263-9.436 13.411-32.641 17.296-41.754l-16.751 43.064z" fill-opacity=".416" class="K"/></g><path d="M93.157 46.448l.327 1.287-.099 1.508-.139 1.083-2.38-1.13c-.175-.087-1.178-1.003-1.483-1.396s-.654-.873-1.091-1.178-1.091-.829-1.44-1.134-.611-.567-.96-.96-.742-1.396-.742-1.396-.436-.393.087 0 1.527.742 1.876.873l2.312.96 2.487 1.134 1.243.349z" opacity=".541" fill="url(#AJ)"/><g transform="scale(.90625)"><path d="M84.676 55.433c-.707.53-4.419 4.154-4.419 4.154.379 1.238-1.856 1.129 3.536 4.95 0 0 3.889 1.414 4.95 2.298s6.541 3.182 7.425 3.359 5.303-.619 5.303-.619l.354-3.889s-3.156-1.872-4.331-2.033c-1.503-.206-8.674-.192-7.69-3.094.635-1.872-4.419-3.447-4.419-3.447l-.707-1.679z" opacity=".71" fill="url(#AG)" filter="url(#AH)"/><path d="M101.469 58.875l.469 1.844.719 2.563.375 1.781-4.844-2.25c-.25-.125-1.687-1.437-2.125-2s-.937-1.25-1.562-1.687a29.7 29.7 0 0 1-2.062-1.625 14.26 14.26 0 0 1-1.375-1.375c-.5-.562-1.062-2-1.062-2s-.625-.562.125 0 2.188 1.063 2.688 1.25l3.313 1.375 3.563 1.625 1.781.5z" opacity=".541" fill="url(#AI)"/><path d="M49.144 100.069l.54 3.526-4.584 6.86c-.16.52 4.864.258 5.416 1.643.406 1.019-1.876 2.15-1.726 2.599l7.646 1.458 6.364 1.591c.398.1-.306-1.968.825-1.433.585.276 4.096-4.01 4.742-3.691 1.054.52-.862 3.227-.541 4.609.454 1.955 2.885 2.636 2.885 2.636l6.718-.354c1.414 0 5.657 1.061 5.657 1.061" fill="url(#AL)" filter="url(#AM)"/></g></g></svg>