<svg xmlns="http://www.w3.org/2000/svg" width="128" height="128" xmlns:v="https://vecta.io/nano"><defs><linearGradient id="A" gradientTransform="matrix(0.3995716,0.3995716,0.3995716,-0.3995716,56.863409,79.33794)" x1="113.157" y1="25.786" x2="39.268" y2="25.786" href="#F"><stop offset="0" stop-color="#0968ef"/><stop offset="1" stop-color="#aecffc"/></linearGradient><linearGradient id="B" gradientTransform="matrix(0,-1.1981278,-1.5,0,96,149.35412)" x1="102.311" y1="-5.83" x2="74.33" y2="32" href="#F"><stop offset="0" stop-color="#fff"/><stop offset="1" stop-color="#fff" stop-opacity="0"/></linearGradient><linearGradient id="C" gradientTransform="matrix(0.5415355,0,0,0.7222225,11.348006,-0.2222193)" x1="119.576" y1="23.793" x2="16" y2="109.651" href="#F"><stop offset="0" stop-color="#fff"/><stop offset=".426" stop-color="#fff"/><stop offset=".589" stop-color="#f1f1f1"/><stop offset=".802" stop-color="#eaeaea"/><stop offset="1" stop-color="#dfdfdf"/></linearGradient><linearGradient id="D" x1="36.345" y1="76.032" x2="36.345" y2="15.955" href="#F"><stop offset="0" stop-color="#b4b4b6"/><stop offset=".5" stop-color="#9c9ca1"/><stop offset="1" stop-color="#cdcdd1"/></linearGradient><linearGradient id="E" x1="14.16" y1="-18.366" x2="14.16" y2="-9.05" href="#F"><stop offset="0" stop-color="#06f"/><stop offset="1" stop-color="#80b3ff"/></linearGradient><linearGradient id="F" gradientUnits="userSpaceOnUse"/></defs><rect width="92" height="92" x="16" y="16" rx=".154" ry=".187" fill="#618fd2" fill-opacity=".092"/><g transform="matrix(0 1 1 0 0 0)"><rect width="59.987" height="60" x="16.013" y="16" ry="2.769" rx="2.381" opacity=".75" fill="url(#D)"/><rect ry="1.444" rx="1.2" y="20" x="20.013" height="52" width="51.987" fill="url(#C)" fill-rule="evenodd"/></g><path d="M72 39.725C57.858 52.526 42.562 64.525 24 72V39.388C41.77 37.562 57.824 31.86 72 24v15.725z" fill="url(#B)" fill-rule="evenodd"/><path d="M100 100.099L82.419 100v-2.176l9.421-2.689-60.123-59.84 3.197-3.197 60.123 59.84 2.608-9.341 2.257-.08.098 17.581z" fill="url(#A)" fill-rule="evenodd"/><g id="G" transform="translate(-8 8)" fill="#7193c6" fill-opacity="1"><rect transform="matrix(0 1 -1 0 0 0)" id="H" width="4" height="4" x="16" y="-116" rx=".077" ry="1.351" opacity="1" fill="#7193c6" fill-opacity="1" stroke="none"/><use height="128" width="128" href="#H" y="8"/><use height="128" width="128" id="I" href="#H" y="16"/><use height="128" width="128" id="J" href="#H" y="24"/><use height="128" width="128" id="K" href="#H" y="32"/><use href="#I" id="L" width="88" height="88" y="24"/><use href="#J" width="88" height="88" y="24"/><use href="#J" width="128" height="128" y="32"/><use href="#K" width="128" height="128" y="32"/><use href="#L" width="128" height="128" y="32"/></g><use href="#G" transform="matrix(0 -1 1 0 0 123.99998)" width="128" height="128"/><use href="#G" width="128" height="128" x="-88"/><use href="#G" transform="matrix(0 -1 1 0 .000008 211.99998)" width="128" height="128"/><use href="#M" width="128" height="128" x="96"/><use href="#M" width="128" height="128" y="96"/><use href="#M" width="128" height="128" x="96" y="96"/><rect transform="scale(1 -1)" id="M" width="12" height="12" x="8" y="-20" rx=".155" ry=".187" fill="url(#E)"/><rect ry=".187" rx=".155" y="-16" x="12" height="4" width="4" id="N" transform="scale(1 -1)" fill="#bfd9ff"/><g fill="#a4c0e4"><use href="#N" width="88" height="88" x="96"/><use href="#N" width="88" height="88" y="96"/><use href="#N" width="88" height="88" x="96" y="96"/></g></svg>