<svg xmlns="http://www.w3.org/2000/svg" width="128" height="128" xmlns:v="https://vecta.io/nano"><style><![CDATA[.B{stroke-linejoin:round}.C{stroke-width:8.615}.D{stroke-width:6.462}.E{stroke-width:4.308}.F{filter:url(#E)}]]></style><defs><linearGradient id="A" href="#T"><stop offset="0" stop-color="#dce7f5"/><stop offset="1" stop-color="#dce7f5" stop-opacity="0"/></linearGradient><radialGradient id="B" gradientTransform="matrix(2.7052312,0.55734698,-0.48309218,2.3448159,-67.813803,-122.35329)" cx="58.656" cy="66.672" fx="59.916" fy="75.445" r="45.375" x1="343.999" y1="56" x2="343.999" y2="128" href="#T"><stop offset="0" stop-color="#8a5db1"/><stop offset="1" stop-color="#583495"/></radialGradient><radialGradient id="C" cx="77.697" cy="20.802" fx="77.697" fy="20.802" r="57.345" gradientTransform="matrix(4.1908004,0,0,4.481999,-247.91608,-75.620595)" href="#T"><stop offset="0" stop-color="#00aad4"/><stop offset="1" stop-color="#cbf5ff"/></radialGradient><radialGradient href="#A" id="D" cx="100.875" cy="94.75" fx="100.875" fy="94.75" r="1.844" gradientTransform="matrix(0.95415464,-0.29931408,0.54237288,1.7289785,-46.765015,-38.877184)"/><filter id="E" x="-.201" width="1.402" y="-.269" height="1.539"><feGaussianBlur stdDeviation=".309"/></filter><radialGradient href="#A" id="F" gradientTransform="matrix(0.95415464,-0.29931408,0.54237288,1.7289785,-46.765015,-126.60132)" cx="100.875" cy="94.75" fx="100.875" fy="94.75" r="1.844"/><radialGradient href="#A" id="G" gradientTransform="matrix(0.954155,-0.29931408,0.54237288,1.728979,-46.765015,-126.60132)" cx="100.875" cy="94.75" fx="100.875" fy="94.75" r="1.844"/><filter id="H" x="-.019" y="-.03" width="1.038" height="1.06"><feGaussianBlur stdDeviation=".318"/></filter><clipPath id="I"><path d="M101.125 5.344A2.653 2.653 0 0 0 98.688 8v5.313h-8-.031c-10.981 0-20.623 4.465-26.75 10.469-6.119 5.996-9.319 12.499-12.219 17.656-2.906 5.167-5.353 8.88-7.906 11.031-2.38 2.005-5.076 3.5-11.781 3.5H13.281a2.653 2.653 0 0 0-2.656 2.656v32.094a2.653 2.653 0 0 0 2.656 2.656h32.063c4.429 0 6.663 1.055 8.438 2.438 1.954 1.522 3.714 3.943 5.844 7.219 2.121 3.262 4.47 7.287 8.563 10.844s10.142 6.156 17.156 6.156h13.344v5.313a2.653 2.653 0 0 0 4.281 2.094l18.781-14.656a2.653 2.653 0 0 0 0-4.187l-18.781-14.656a2.653 2.653 0 0 0-4.281 2.094v5.313h-8.031c-1.745 0-3.862-.269-5.656-.719s-3.312-1.22-3.562-1.437c-1.73-1.503-3.486-4.066-5.719-7.5-2.055-3.161-4.63-8.718-9.406-12.437-2.058-1.603-4.78-3.037-7.719-4.187 1.814-1.063 3.577-2.169 5.156-3.5 6.829-5.752 10.713-11.29 13.906-16.969 3.116-5.542 5.493-9.598 7.625-11.687 1.039-1.018 1.801-1.761 2.906-2.219 1.141-.472 2.623-.656 5.156-.656h5.344v5.313a2.653 2.653 0 0 0 4.406 2l21.313-18.687a2.653 2.653 0 0 0 0-4L103.094 6a2.653 2.653 0 0 0-1.969-.656z" text-decoration="none" fill="url(#J)" fill-opacity="1" stroke="none" stroke-width="26.7"/></clipPath><radialGradient id="J" gradientTransform="matrix(1,0,0,1.0694852,0,-4.6322589)" cx="48.22" cy="124.871" fx="48.22" fy="124.871" r="57.345" y2="128" x2="343.999" y1="56" x1="343.999" href="#T"><stop offset="0" stop-color="#734997"/><stop offset="1" stop-color="#3a2363"/></radialGradient><linearGradient id="K" x1="48.575" y1="74.708" x2="87.021" y2="50.666" href="#T"><stop offset="0"/><stop offset="1" stop-opacity="0"/></linearGradient><linearGradient id="L" x1="53.586" y1="-12.797" x2="47.586" y2="136.438" href="#T"><stop offset="0" stop-color="#fff"/><stop offset="1" stop-color="#fff" stop-opacity="0"/></linearGradient><filter id="M" x="-.056" y="-.054" width="1.112" height="1.108"><feGaussianBlur stdDeviation="3.494"/></filter><linearGradient id="N" x1="29.971" y1="73.18" x2="5.484" y2="73.18" href="#T"><stop offset="0" stop-color="#fff"/><stop offset="1" stop-color="#fff" stop-opacity="0"/></linearGradient><mask maskUnits="userSpaceOnUse" id="O"><path d="M2.015 0h150.204v155.906H2.015z" fill="url(#N)" fill-opacity="1" stroke="none" filter="url(#M)"/></mask><linearGradient id="P" x1="57.355" y1="-27.103" x2="102.099" y2="74.355" href="#T"><stop offset="0" stop-color="#fff"/><stop offset="1" stop-color="#fff" stop-opacity="0"/></linearGradient><radialGradient id="Q" gradientTransform="matrix(2.705231,0.55734698,-0.48309218,2.344816,-67.813803,-122.35329)" cx="58.656" cy="66.672" fx="59.916" fy="75.445" r="45.375" href="#T"><stop offset="0" stop-color="#5df"/><stop offset=".835" stop-color="#c7ecf4"/><stop offset="1" stop-color="#d8edf2"/></radialGradient><path id="R" d="M101.344 8v7.969H90.688h-.031c-10.249 0-19.315 4.24-24.906 9.719C59.988 31.334 56.954 37.496 54 42.75c-2.943 5.234-5.468 9.196-8.5 11.75-2.733 2.302-6.344 4.125-13.5 4.125H7.624v32.094h35.177c4.898 0 7.881 1.301 10.063 3 2.397 1.867 4.28 4.558 6.438 7.875 2.164 3.328 6.911 7.043 10.636 10.281 3.593 3.123 9.054 5.5 15.406 5.5h16v7.969l18.781-14.656-18.781-14.656V104H90.656c-4.024 0-9.133-1.217-10.969-2.812-2.151-1.869-3.952-4.626-6.187-8.062-2.227-3.425-4.722-8.595-8.812-11.781-2.603-2.027-6.361-4.098-10.281-5l-3.312-.719a12.68 12.68 0 0 0 3.188-1.156c2.863-1.507 5.535-3.071 7.75-4.937 6.573-5.537 10.205-10.723 13.313-16.25 3.119-5.547 5.499-9.739 8.094-12.281 1.04-1.019 2.122-2.077 3.75-2.75s3.489-.875 6.156-.875h8v7.969l21.313-18.687L101.344 8z"/><path id="S" d="M101.25 5.651c-.929.038-1.771.559-2.219 1.375l2.469 1.375 1.219-2.344c-.439-.276-.95-.417-1.469-.406z"/><linearGradient id="T" gradientUnits="userSpaceOnUse"/></defs><g fill="none" stroke="#bf5e00"><g opacity=".1"><linearGradient y2="0" x2="28" y1="57.5" x1="28" gradientUnits="userSpaceOnUse"><stop offset="0" stop-color="#ffea00" class="B C"/><stop offset="1" stop-color="#fc0" class="B C"/></linearGradient></g><g opacity=".15"><linearGradient gradientUnits="userSpaceOnUse" x1="28" y1="57.5" x2="28" y2="0"><stop offset="0" stop-color="#ffea00" class="B D"/><stop offset="1" stop-color="#fc0" class="B D"/></linearGradient></g><g opacity=".2"><linearGradient y2="0" x2="28" y1="57.5" x1="28" gradientUnits="userSpaceOnUse"><stop offset="0" stop-color="#ffea00" class="B E"/><stop offset="1" stop-color="#fc0" class="B E"/></linearGradient></g><g opacity=".1"><linearGradient y2="0" x2="28" y1="57.5" x1="28" gradientUnits="userSpaceOnUse"><stop offset="0" stop-color="#ffea00" class="B C"/><stop offset="1" stop-color="#fc0" class="B C"/></linearGradient></g><g opacity=".15"><linearGradient gradientUnits="userSpaceOnUse" x1="28" y1="57.5" x2="28" y2="0"><stop offset="0" stop-color="#ffea00" class="B D"/><stop offset="1" stop-color="#fc0" class="B D"/></linearGradient></g><g opacity=".2"><linearGradient y2="0" x2="28" y1="57.5" x1="28" gradientUnits="userSpaceOnUse"><stop offset="0" stop-color="#ffea00" class="B E"/><stop offset="1" stop-color="#fc0" class="B E"/></linearGradient></g><g opacity=".1"><linearGradient y2="0" x2="28" y1="57.5" x1="28" gradientUnits="userSpaceOnUse"><stop offset="0" stop-color="#ffea00" class="B C"/><stop offset="1" stop-color="#fc0" class="B C"/></linearGradient></g><g opacity=".15"><linearGradient gradientUnits="userSpaceOnUse" x1="28" y1="57.5" x2="28" y2="0"><stop offset="0" stop-color="#ffea00" class="B D"/><stop offset="1" stop-color="#fc0" class="B D"/></linearGradient></g><g opacity=".2"><linearGradient y2="0" x2="28" y1="57.5" x1="28" gradientUnits="userSpaceOnUse"><stop offset="0" stop-color="#ffea00" class="B E"/><stop offset="1" stop-color="#fc0" class="B E"/></linearGradient></g></g><g mask="url(#O)" transform="matrix(.786715 0 0 .786715 18.987546 14.095246)"><path d="M101.125 5.344c-1.317.107-2.443 1.335-2.437 2.656v5.313h-8-.031c-10.981 0-20.623 4.465-26.75 10.469-6.119 5.996-9.319 12.499-12.219 17.656-2.906 5.167-5.353 8.88-7.906 11.031-2.38 2.005-5.076 3.5-11.781 3.5H7.094c-1.391-.002-2.658 1.265-2.656 2.656v32.094c-.002 1.391 1.265 2.658 2.656 2.656h35.707c4.429 0 6.663 1.055 8.438 2.438 1.954 1.522 3.714 3.943 5.844 7.219 2.121 3.262 7.012 7.287 11.105 10.844s10.142 6.156 17.156 6.156h13.344v5.313c.001.986.602 1.949 1.488 2.382s2.015.317 2.794-.288l18.781-14.656c1.269-.988 1.269-3.199 0-4.187l-18.781-14.656c-.779-.605-1.907-.722-2.794-.288s-1.487 1.396-1.488 2.382v5.313h-8.031c-1.745 0-3.862-.269-5.656-.719s-3.312-1.22-3.562-1.437c-1.73-1.503-3.486-4.066-5.719-7.5-2.055-3.161-4.63-8.718-9.406-12.437-2.058-1.603-4.78-3.037-7.719-4.187 1.814-1.063 3.577-2.169 5.156-3.5 6.829-5.752 10.713-11.29 13.906-16.969 3.116-5.542 5.493-9.598 7.625-11.687 1.039-1.018 1.801-1.761 2.906-2.219 1.141-.472 2.623-.656 5.156-.656h5.344v5.313a2.72 2.72 0 0 0 1.557 2.424 2.72 2.72 0 0 0 2.85-.424l21.313-18.687c1.138-.992 1.138-3.008 0-4L103.094 6c-.533-.471-1.26-.713-1.969-.656z" fill="url(#C)"/><path clip-path="url(#I)" d="M58.625 75.063l-11.937.813 39.746-25.316c-9.262 8.168-6.208 16.81-27.809 24.503z" opacity=".223" fill="url(#K)" filter="url(#H)"/><use href="#R" fill="url(#B)"/><path d="M101.344 8.052v7.969H90.688h-.031c-10.249 0-19.315 4.24-24.906 9.719-5.762 5.646-8.796 11.809-11.75 17.062-2.943 5.234-5.468 9.196-8.5 11.75-2.733 2.302-6.344 4.125-13.5 4.125l-18.667-.009c26.666 0 27.041.354 32.73-3.804C49.2 52.571 52.057 49.036 55 43.802c2.954-5.254 5.988-11.416 11.75-17.062 5.591-5.479 14.657-9.719 24.906-9.719h.031 10.656V9.052l14.5 12.688c.008-.032.024-.062.031-.094L101.344 8.052zm0 29.313v5.406l1-.781-1-4.625z" opacity=".126" fill="#fff"/><path d="M101.25 93.375a2.653 2.653 0 0 0-2.219 1.375l2.469 1.375 1.219-2.344a2.653 2.653 0 0 0-1.469-.406z" fill="url(#D)" class="F"/><path d="M101.25 5.651a2.653 2.653 0 0 0-2.219 1.375l2.469 1.375 1.219-2.344a2.653 2.653 0 0 0-1.469-.406z" fill="url(#F)" class="F"/><use href="#S" transform="matrix(1 0 0 -1 0 53.049104)" opacity=".535" fill="url(#F)" class="F"/><use href="#S" transform="matrix(1 0 0 -1 0 133.34506)" opacity=".535" fill="url(#G)" class="F"/><use href="#R" fill="url(#Q)"/><path d="M101.344 8.031V16H90.688h-.031c-10.249 0-19.315 4.24-24.906 9.719-5.762 5.646-8.796 11.809-11.75 17.063-2.943 5.234-5.468 9.196-8.5 11.75-2.733 2.302-6.344 4.125-13.5 4.125H7.624v11.219c1.332-.769 2.868-1.183 4.406-1.187h28.594c6.143 0 8.857-1.573 10.625-3.062 2.344-1.974 4.574-5.327 7.5-10.531 2.901-5.159 6.143-11.834 12.5-18.062 6.559-6.427 7.847-11 19.406-11l11.578-1.906 20.422 2.562-21.312-18.656z" fill="url(#P)"/><path d="M61.21 78.99c6.913 6.467 10.665 17.865 16.009 26.792 2.299 3.536 13.254 6.542 18.643 6.303s24.175-1.421 24.175-1.421l-18.649-14.568-.044 7.999H90.781c-4.024 0-8.758-1.092-10.594-2.687a35.74 35.74 0 0 1-6.687-7.688c-1.559-2.397-6.389-10.964-12.29-14.729z" fill="url(#L)"/></g></svg>