<svg xmlns="http://www.w3.org/2000/svg" width="128" height="128" xmlns:v="https://vecta.io/nano"><style><![CDATA[.B{fill-rule:evenodd}.C{opacity:.8}]]></style><defs><filter x="-.058" width="1.117" y="-.536" height="2.071" id="A"><feGaussianBlur stdDeviation="2.399"/></filter><filter id="B" x="-.096" y="-.096" width="1.192" height="1.192"><feGaussianBlur stdDeviation=".479"/></filter><radialGradient id="C" cx="308.446" cy="-306.194" r="108.311" gradientTransform="matrix(0.95,0,0,-0.95,-282.3963,-266.2798)" href="#b"><stop offset="0" stop-color="#4b4a57"/><stop offset="1"/></radialGradient><radialGradient id="D" cx="357.525" cy="-322.545" r="125.839" href="#b"><stop offset="0" stop-color="#4b4a57"/><stop offset=".74"/></radialGradient><radialGradient id="E" cx="308.425" cy="-306.194" r="108.323" href="#b"><stop offset="0" stop-color="#4b4a57"/><stop offset="1"/></radialGradient><linearGradient id="F" gradientTransform="matrix(0.9660244,0,0,1.0454259,-13.210797,6.3512627)" x1="35.889" y1="24" x2="35.889" y2="37.535" r="108.234" cy="-306.194" cx="308.477" href="#b"><stop offset="0" stop-color="#5a5868"/><stop offset="1" stop-color="#30333d"/></linearGradient><linearGradient id="G" x1="63.81" y1="54.392" x2="63.81" y2="51.279" href="#b"><stop offset="0" stop-opacity="0"/><stop offset="1"/></linearGradient><linearGradient id="H" gradientTransform="matrix(1.0612973,0,0,-1.7377984,-352.29568,-485.99993)" x1="385.718" y1="-310.143" x2="385.38" y2="-298.67" href="#b"><stop offset="0" stop-color="#a2a2a2"/><stop offset="1" stop-color="#fff"/></linearGradient><linearGradient id="I" x1="56.999" y1="36.096" x2="56.999" y2="50.722" cx="102" cy="112.305" r="139.559" href="#b"><stop offset="0" stop-color="#b7b8b9"/><stop offset=".189" stop-color="#ececec"/><stop offset=".257" stop-color="#fafafa"/><stop offset=".301" stop-color="#fff"/><stop offset=".531" stop-color="#fafafa"/><stop offset=".845" stop-color="#ebecec"/><stop offset="1" stop-color="#e1e2e3"/></linearGradient><radialGradient href="#D" id="J" gradientTransform="matrix(1.0082325,0,0,-0.8826262,-333.76602,-250.69633)" cx="390.478" cy="-374.3" fx="390.478" fy="-374.3"/><linearGradient id="K" x1="3.75" y1="18" x2="8" y2="18" href="#b"><stop offset="0" stop-color="#7b7b7b"/><stop offset="1" stop-color="#a8a8a8"/></linearGradient><linearGradient href="#C" id="L" x1="5.653" y1="57.607" x2="7.653" y2="57.607"/><linearGradient href="#C" id="M" x1="28.557" y1="45.064" x2="30.557" y2="45.064"/><linearGradient href="#C" id="N" x1="39.883" y1="-16.811" x2="41.883" y2="-16.811"/><linearGradient id="O" x1="54.958" y1="48.238" x2="193.958" y2="149.905" href="#b"><stop offset="0" stop-color="#fff"/><stop offset="1" stop-color="#a4c0e4"/></linearGradient><linearGradient id="P" x1="65.853" y1="33.342" x2="204.854" y2="135.008" href="#b"><stop offset="0" stop-color="#fff"/><stop offset="1" stop-color="#a4c0e4"/></linearGradient><linearGradient id="Q" x1="51.945" y1="52.357" x2="190.946" y2="154.023" href="#b"><stop offset="0" stop-color="#fff"/><stop offset="1" stop-color="#a4c0e4"/></linearGradient><linearGradient id="R" x1="45.809" y1="60.746" x2="184.81" y2="162.413" href="#b"><stop offset="0" stop-color="#fff"/><stop offset="1" stop-color="#a4c0e4"/></linearGradient><linearGradient id="S" x1="54.42" y1="48.972" x2="193.421" y2="150.639" href="#b"><stop offset="0" stop-color="#fff"/><stop offset="1" stop-color="#a4c0e4"/></linearGradient><linearGradient id="T" x1="66.608" y1="32.309" x2="205.609" y2="133.976" href="#b"><stop offset="0" stop-color="#fff"/><stop offset="1" stop-color="#a4c0e4"/></linearGradient><linearGradient id="U" x1="68.706" y1="45.27" x2="68.706" y2="96.672" href="#b"><stop offset="0" stop-color="#fff"/><stop offset="1" stop-color="#fff" stop-opacity="0"/></linearGradient><filter x="-.012" width="1.025" y="-.568" height="2.136" id="V"><feGaussianBlur stdDeviation=".327"/></filter><linearGradient href="#E" id="W" x1="95.847" y1="67.891" x2="95.183" y2="59.371" gradientTransform="matrix(1.4517027,-0.3889825,0.4294229,1.6026284,-106.10108,-45.062073)"/><linearGradient href="#E" id="X" x1="89.905" y1="59.7" x2="85.33" y2="59.788" gradientTransform="matrix(1.4517027,-0.3889825,0.4294229,1.6026284,-106.10108,-45.062073)"/><filter id="Y" x="-.033" y="-.265" width="1.066" height="1.529"><feGaussianBlur stdDeviation=".882"/></filter><linearGradient href="#D" id="Z" x1="68.75" y1="50.38" x2="68.75" y2="41.686" gradientTransform="matrix(1.5029132,0,0,1.6673702,-32.269705,-36.0287)"/><path id="a" d="M 8,18 A 2.125,2 0 1 1 3.75,18 A 2.125,2 0 1 1 8,18 z"/><linearGradient id="b" gradientUnits="userSpaceOnUse"/></defs><path transform="matrix(.945996 0 0 .394897 -6.796453 76.039335)" d="M 124,117.875 A 49.25,5.375 0 1 1 25.5,117.875 A 49.25,5.375 0 1 1 124,117.875 z" opacity=".7" filter="url(#A)" class="B"/><rect x="15.989" y="46.822" width="95.989" height="75.978" rx="1.945" fill="url(#J)"/><g transform="matrix(.751457 0 0 1.068506 -13.070045 8.082578)" class="C"><linearGradient y2="149.905" x2="193.958" y1="48.238" x1="54.958" gradientUnits="userSpaceOnUse"><stop offset="0" stop-color="#fff"/><stop offset="1" stop-color="#a4c0e4"/></linearGradient><path d="M75.847 51.933h1.824v25.318h-1.824z" fill="url(#O)"/></g><g transform="matrix(.751457 0 0 1.085786 -5.201655 7.547197)" class="C"><linearGradient y2="135.008" x2="204.854" y1="33.342" x1="65.853" gradientUnits="userSpaceOnUse"><stop offset="0" stop-color="#fff"/><stop offset="1" stop-color="#a4c0e4"/></linearGradient><path d="M107.58 51.933h2v25.318h-2z" fill="url(#P)"/></g><g transform="matrix(1.061298 0 0 .751457 -34.059585 24.811894)" class="C"><linearGradient y2="133.976" x2="205.609" y1="32.309" x1="66.608" gradientUnits="userSpaceOnUse"><stop offset="0" stop-color="#fff"/><stop offset="1" stop-color="#a4c0e4"/></linearGradient><path d="M47.171 50.02h90.452v2.094H47.171z" fill="url(#T)"/></g><path d="M17.326 51.536v45.087c13.463-2.887 29.816-7.589 49.22-15.091 15.791-6.105 30.585-11.352 43.96-15.829V51.536H17.326z" opacity=".2" fill="url(#U)"/><path d="M16.011 37.336h95.993v13.296H16.011z" fill="url(#I)"/><path d="M40.148 32.126l7.793 1.812L38.148 44 36 43.95V32l4.148.126z" transform="matrix(1.045505 0 0 1.151242 -17.632623 1.769232)" opacity=".5" filter="url(#B)" class="B"/><path d="M66.864 50.675H82.96l8.009-13.339H74.951l-8.087 13.339z" fill="url(#Z)"/><path transform="matrix(1.451703 -.388982 .388983 1.451703 -32.269705 -24.298571)" d="M19.499 42.928h64v8h-64z" opacity=".6" filter="url(#Y)"/><path d="M96.922 50.675L112 50.626l.01-13.29h-7.001l-8.087 13.339z" fill="url(#Z)"/><path transform="matrix(.965926 -.258819 .258819 .965926 0 0)" d="M5.364 28.562h96.186v13.273H5.364z" fill="url(#H)"/><path d="M108.918 14.127l-6.837 1.832L90.909 5.211l14.574-3.905 3.435 12.821z" fill="url(#W)"/><path d="M88.594 19.573l-15.548 4.166L61.875 12.99l15.472-4.146 11.247 10.728z" fill="url(#W)"/><path d="M27.622 35.91l-11.614 3.112-3.435-12.821 3.802-1.019L27.622 35.91z" fill="url(#X)"/><path d="M59.56 27.352l-15.548 4.166L32.841 20.77l15.472-4.146L59.56 27.352z" fill="url(#W)"/><path d="M36.806 50.675h16.096l8.009-13.339H44.893l-8.087 13.339z" fill="url(#Z)"/><path d="M15.989 50.815h95.806v3.577H15.989z" fill="url(#G)"/><g transform="matrix(1.061297 0 0 .751457 -34.05957 34.447238)" class="C"><linearGradient y2="150.639" x2="193.421" y1="48.972" x1="54.42" gradientUnits="userSpaceOnUse"><stop offset="0" stop-color="#fff"/><stop offset="1" stop-color="#a4c0e4"/></linearGradient><path d="M47.148 74.858h90.444v1.539H47.148z" fill="url(#S)"/></g><g transform="matrix(1.061297 0 0 .751457 -34.05957 39.001872)" class="C"><linearGradient y2="162.413" x2="184.81" y1="60.746" x1="45.809" gradientUnits="userSpaceOnUse"><stop offset="0" stop-color="#fff"/><stop offset="1" stop-color="#a4c0e4"/></linearGradient><path d="M47.002 93.763h90.631v2H47.002z" fill="url(#R)"/></g><g transform="matrix(.751457 0 0 1.075169 -4.249496 8.867878)"><linearGradient y2="154.023" x2="190.946" y1="52.357" x1="51.945" gradientUnits="userSpaceOnUse"><stop offset="0" stop-color="#fff"/><stop offset="1" stop-color="#a4c0e4"/></linearGradient><path d="M96.211 77.251h2v16.428h-2z" fill="url(#Q)"/></g><g fill="#fff"><path d="M21.835 86.916l.425-2.073 3.659-2.596c4.536-3.405 7.288-5.779 7.288-8.287 0-1.257-.879-2.402-2.842-2.402a7.77 7.77 0 0 0-4.113 1.175l-.787-2.294c1.481-.9 3.66-1.556 5.716-1.556 3.839 0 5.682 2.156 5.682 4.612 0 3.679-3.506 6.544-7.497 9.437l-1.816 1.225v.057h7.59l-.574 2.704H21.835v-.001zm40.671 0l.988-4.634h-8.595l.462-2.164 10.086-11.235h4.267l-2.291 10.873h2.506l-.533 2.527h-2.497l-.991 4.634-3.401-.001h0zm1.516-7.162l1.107-4.854.872-3.216h-.127l-2.476 3.272-4.329 4.745-.028.053h4.981zm38.5-8.145h-6.826l-1.204 3.548c.332-.051.572-.051.907-.051.992 0 2.597.245 3.77.983 1.482.818 2.236 2.314 2.236 3.927 0 4.367-3.982 6.902-8.6 6.902-2.177 0-3.988-.518-4.711-1.01l.965-2.534c.754.406 2.231.873 3.86.873 2.446 0 4.832-1.476 4.832-3.655 0-1.72-1.087-3.036-4.798-3.036-.908 0-1.539.058-2.327.113l2.777-8.786h9.721l-.601 2.727zm-24.725 26.74c0 .731-.259 1.435-.727 1.885-.381.359-.898.573-1.513.573-1.059 0-1.652-.732-1.652-1.664 0-.722.271-1.442.748-1.89a2.17 2.17 0 0 1 1.496-.572c1.079 0 1.648.71 1.648 1.668zm-2.455-.654c-.327.321-.508.941-.508 1.417 0 .565.26.984.858.984.254 0 .496-.111.686-.291.322-.316.497-.972.497-1.435 0-.497-.183-.98-.824-.98a1 1 0 0 0-.708.304zm4.683 3.051l-.278-.808-.219-.681h-.013l-.42.714-.477.777h-1.053l1.529-2.044-.713-1.956h.92l.246.763.191.665h.017l.387-.676.474-.752h1.042l-1.49 1.961.781 2.039-.927-.002h0zm2.296 0l.315-1.632-.798-2.366h.937l.259 1.016.16.72h.012l.415-.731.616-1.008h1.042l-1.766 2.35-.318 1.65h-.873 0zm5.77-.186a4.44 4.44 0 0 1-1.317.225c-.566 0-1.032-.14-1.369-.438-.33-.281-.512-.719-.512-1.233 0-.748.315-1.397.833-1.828.463-.373 1.093-.581 1.801-.581.536 0 .933.102 1.088.178l-.259.721c-.191-.083-.506-.161-.868-.161-.409 0-.774.111-1.042.321-.352.272-.592.743-.592 1.289 0 .672.41 1.013 1.052 1.013.201 0 .345-.031.444-.074l.161-.843h-.628l.131-.681h1.485l-.406 2.091zm3.361-1.513h-1.454l-.186.966h1.629l-.139.734h-2.503l.774-3.999h2.419l-.144.729h-1.542l-.167.856h1.455l-.142.714zm.48 1.699l.777-3.999h1.026l.541 1.524.368 1.367h.02c.017-.411.071-.851.187-1.437l.28-1.454h.813l-.768 3.999h-.905l-.574-1.598-.398-1.395-.018.01-.271 1.581-.264 1.401h-.814 0z"/><path transform="matrix(1.502913 0 0 2.414891 -32.269705 -76.639044)" d="M32.125 47.808H96v1.41H32.125z" opacity=".2" filter="url(#V)"/></g><path d="M20.48 31.441l13.378 10.454L20.48 52.35l-4.457-.053L16 31.356l4.48.085z" fill="url(#F)" class="B"/><g transform="matrix(1.044919 .026971 .029922 1.262913 -17.697287 -2.712624)" class="B"><use href="#a" transform="matrix(.470588 0 0 -.5 32.235294 36)" fill="url(#K)"/><path transform="matrix(.5 .866025 -.866025 .5 0 0)" d="M39.883-17.061h2v.5h-2z" opacity=".5" fill="url(#N)"/></g><g transform="matrix(1.045505 0 0 1.151242 -17.632623 1.769237)" class="B"><use href="#a" transform="matrix(.470588 0 0 -.5 32.211834 50)" fill="url(#K)"/><path transform="matrix(.992102 -.125437 .125437 .992102 0 0)" d="M28.557 44.814h2v.5h-2z" opacity=".5" fill="url(#M)"/></g><g transform="matrix(1.045505 0 0 1.151242 -19.723641 1.769237)" class="B"><use href="#a" transform="matrix(.470588 0 0 -.5 44.211835 43)" fill="url(#K)"/><path transform="matrix(.675375 -.737474 .737475 .675375 0 0)" d="M5.653 57.357h2v.5h-2z" opacity=".5" fill="url(#L)"/></g><path transform="matrix(1.358282 -.366065 .573894 2.215537 -53.108878 -68.535869)" d="M32 47.837h64v1.381H32z" opacity=".2" fill="#fff" filter="url(#V)"/></svg>